<svg xmlns="http://www.w3.org/2000/svg" viewBox="0 0 200.79 95.59"><defs><style>.cls-1{fill:#269037;}.cls-2{fill:#1d672e;}.cls-3{fill:none;}.cls-3,.cls-4,.cls-6,.cls-7{stroke:#0c3148;stroke-miterlimit:10;}.cls-3,.cls-4{stroke-width:2.06px;}.cls-4,.cls-6,.cls-7{fill:#fcc009;}.cls-5{fill:#f1871c;}.cls-6{stroke-width:1.09px;}.cls-7{stroke-width:0.75px;}</style></defs><title>espinillo</title><g id="Capa_2" data-name="Capa 2"><g id="Capa_2-2" data-name="Capa 2"><path class="cls-1" d="M198.26,66.92c.68.93,1.1,1.58,1.37,2A7,7,0,0,1,198.7,74,7.34,7.34,0,0,1,193,77.16a27,27,0,0,1-9.61-2.24,26.69,26.69,0,0,1-8.29-5.71,59.27,59.27,0,0,0-15.5-8.61c-9.12-3.4-15.17-5.74-20.27-5.69a1.76,1.76,0,0,0-.66.13v0l.25-.08a62,62,0,0,0,13.1-6.62l.11.17c1.13.14,17.81,3.26,29.75,6.3a25.9,25.9,0,0,1,13.4,8.44C196.64,64.79,197.58,66,198.26,66.92Z"/><path class="cls-2" d="M141.28,16.37a17.84,17.84,0,0,1,2.33,4.25c4.25,11.15-4.23,23.6-8.23,28.63a.54.54,0,0,0,.67.82c2.4-1.2,5-2.41,7.91-3.56a102.34,102.34,0,0,1,11.58-3.82c.62,1.23.51,1,1.14,2.23-1.29,1-2.83,2.19-4.63,3.38A62,62,0,0,1,139,54.92l-.25.08a21.34,21.34,0,0,1-6.7,1.36h-1.33c-22.68.14-46.18-.17-70.45-1.05Q30.1,54.25,1.71,52.19a.73.73,0,0,1-.43-1.28L6.67,46.3a2.23,2.23,0,0,1,1.87-.52,410.14,410.14,0,0,0,55.25,6.06,409.64,409.64,0,0,0,56.36-1.52,14.37,14.37,0,0,0,7.72-3.15c1.54-1.32,3.56-3.71,5.44-12.7,2.32-11.11,1.31-17.49,4.4-18.69A4.2,4.2,0,0,1,141.28,16.37Z"/><path class="cls-1" d="M132,56.36A21.34,21.34,0,0,0,138.7,55v0a1.73,1.73,0,0,0-.05,3.16C144,60.67,150.83,64,156,68c2.14,1.65,4.08,3.31,5.84,5a22.55,22.55,0,0,1,5,16.94A6.53,6.53,0,0,1,163,94.17a6.28,6.28,0,0,1-6.44-1.3,90.43,90.43,0,0,0-11.88-17.25c-4.86-5.55-11.62-13.82-14.36-18.68-.25-.44-.15-.54.35-.56H132Z"/><path class="cls-3" d="M132,56.36h2.14"/><path class="cls-3" d="M131.22,56.37h.57"/><path class="cls-3" d="M152.16,48.47c1.13.14,17.81,3.26,29.75,6.3a25.9,25.9,0,0,1,13.4,8.44c1.33,1.58,2.27,2.78,2.95,3.71s1.1,1.58,1.37,2A7,7,0,0,1,198.7,74,7.34,7.34,0,0,1,193,77.16a27,27,0,0,1-9.61-2.24,26.69,26.69,0,0,1-8.29-5.71,59.27,59.27,0,0,0-15.5-8.61c-9.12-3.4-15.17-5.74-20.27-5.69a1.76,1.76,0,0,0-.66.13,1.73,1.73,0,0,0-.05,3.16C144,60.67,150.83,64,156,68c2.14,1.65,4.08,3.31,5.84,5a22.55,22.55,0,0,1,5,16.94A6.53,6.53,0,0,1,163,94.17a6.28,6.28,0,0,1-6.44-1.3,90.43,90.43,0,0,0-11.88-17.25c-4.86-5.55-11.62-13.82-14.36-18.68-.25-.44-.15-.54.35-.56H132A21.34,21.34,0,0,0,138.7,55l.25-.08a62,62,0,0,0,13.1-6.62c1.8-1.19,3.34-2.35,4.63-3.38-.63-1.23-.52-1-1.14-2.23A102.34,102.34,0,0,0,144,46.51c-2.87,1.15-5.51,2.36-7.91,3.56a.54.54,0,0,1-.67-.82c4-5,12.48-17.48,8.23-28.63a17.84,17.84,0,0,0-2.33-4.25,4.2,4.2,0,0,0-3.57-.59c-3.09,1.2-2.08,7.58-4.4,18.69-1.88,9-3.9,11.38-5.44,12.7a14.37,14.37,0,0,1-7.72,3.15,409.64,409.64,0,0,1-56.36,1.52A410.14,410.14,0,0,1,8.54,45.78a2.23,2.23,0,0,0-1.87.52L1.28,50.91a.73.73,0,0,0,.43,1.28q28.37,2,58.51,3.14c24.27.88,47.77,1.19,70.45,1.05"/><path class="cls-4" d="M194.33,25.45h0a2.77,2.77,0,0,0-.36,5h0a2.77,2.77,0,0,1-1.58,5.18h0a2.77,2.77,0,0,0-2.5,4.35h0a2.77,2.77,0,0,1-3.67,4h0a2.77,2.77,0,0,0-4.14,2.84h0a2.77,2.77,0,0,1-5,2h0a2.77,2.77,0,0,0-5,.76h0a2.78,2.78,0,0,1-5.41-.39h0a2.77,2.77,0,0,0-4.8-1.46h0a2.77,2.77,0,0,1-4.69-2.7h0a2.77,2.77,0,0,0-3.69-3.4h0a2.77,2.77,0,0,1-3.07-4.46h0a2.77,2.77,0,0,0-1.85-4.67h0a2.77,2.77,0,0,1-.82-5.35h0a2.78,2.78,0,0,0,.36-5h0A2.77,2.77,0,0,1,149.7,17h0a2.77,2.77,0,0,0,2.5-4.35h0a2.77,2.77,0,0,1,3.67-4h0A2.77,2.77,0,0,0,160,5.78h0a2.77,2.77,0,0,1,5-2h0A2.77,2.77,0,0,0,170,3h0a2.77,2.77,0,0,1,5.4.39h0a2.77,2.77,0,0,0,4.8,1.46h0a2.77,2.77,0,0,1,4.7,2.7h0a2.77,2.77,0,0,0,3.69,3.4h0a2.77,2.77,0,0,1,3.06,4.46h0a2.78,2.78,0,0,0,1.85,4.67h0A2.77,2.77,0,0,1,194.33,25.45Z"/><circle class="cls-5" cx="168.56" cy="12.2" r="2.21"/><circle class="cls-5" cx="177.81" cy="17.37" r="1.84"/><circle class="cls-5" cx="182.06" cy="26.54" r="1.32"/><path class="cls-6" d="M114.84,39.09h0a1.09,1.09,0,0,0,1,1.71h0a1.1,1.1,0,0,1,.65,2.05h0a1.09,1.09,0,0,0,.17,2h0a1.1,1.1,0,0,1-.31,2.13h0a1.1,1.1,0,0,0-.71,1.85h0a1.1,1.1,0,0,1-1.19,1.79h0A1.1,1.1,0,0,0,113,52h0a1.1,1.1,0,0,1-1.85,1.08h0a1.1,1.1,0,0,0-1.89.61h0a1.1,1.1,0,0,1-2.14.18h0a1.1,1.1,0,0,0-2-.28h0a1.1,1.1,0,0,1-2-.77h0a1.1,1.1,0,0,0-1.65-1.11h0A1.1,1.1,0,0,1,100,50.12h0a1.09,1.09,0,0,0-1-1.71h0a1.1,1.1,0,0,1-.65-2h0a1.1,1.1,0,0,0-.16-2h0a1.1,1.1,0,0,1,.3-2.13h0a1.1,1.1,0,0,0,.71-1.86h0a1.09,1.09,0,0,1,1.19-1.78h0a1.1,1.1,0,0,0,1.45-1.37h0a1.1,1.1,0,0,1,1.85-1.09h0a1.1,1.1,0,0,0,1.9-.6h0a1.1,1.1,0,0,1,2.14-.18h0a1.1,1.1,0,0,0,2,.28h0a1.1,1.1,0,0,1,2,.77h0a1.1,1.1,0,0,0,1.66,1.1h0A1.1,1.1,0,0,1,114.84,39.09Z"/><circle class="cls-5" cx="103.45" cy="40.56" r="0.87"/><circle class="cls-5" cx="107.63" cy="40.17" r="0.73"/><circle class="cls-5" cx="111.08" cy="42.2" r="0.52"/><path class="cls-7" d="M124.31,65.3h0A.75.75,0,0,0,123,65h0a.75.75,0,0,1-1.3-.69h0a.75.75,0,0,0-1-.89h0a.75.75,0,0,1-.87-1.19h0a.75.75,0,0,0-.54-1.25h0a.75.75,0,0,1-.27-1.44h0a.75.75,0,0,0,.05-1.36h0a.75.75,0,0,1,.39-1.42h0a.75.75,0,0,0,.64-1.2h0a.75.75,0,0,1,1-1.11h0a.75.75,0,0,0,1.09-.81h0a.75.75,0,0,1,1.35-.58h0a.76.76,0,0,0,1.34-.25h0a.75.75,0,0,1,1.47.05h0a.75.75,0,0,0,1.31.36h0a.75.75,0,0,1,1.3.69h0a.75.75,0,0,0,1,.89h0a.75.75,0,0,1,.87,1.18h0a.75.75,0,0,0,.54,1.25h0a.75.75,0,0,1,.27,1.45h0a.75.75,0,0,0,0,1.36h0a.75.75,0,0,1-.39,1.42h0a.75.75,0,0,0-.64,1.2h0a.75.75,0,0,1-1,1.11h0a.75.75,0,0,0-1.09.81h0a.75.75,0,0,1-1.35.58h0a.75.75,0,0,0-1.34.25h0A.75.75,0,0,1,124.31,65.3Z"/><circle class="cls-5" cx="129.18" cy="59.13" r="0.6"/><circle class="cls-5" cx="127.32" cy="61.32" r="0.5"/><circle class="cls-5" cx="124.66" cy="61.98" r="0.36"/></g></g></svg>