<svg xmlns="http://www.w3.org/2000/svg" viewBox="0 0 52.29 52.05"><defs><style>.cls-1{fill:#fcc009;stroke:#0c3148;stroke-miterlimit:10;stroke-width:2.71px;}.cls-2{fill:#f1871c;}</style></defs><title>favicon</title><g id="Capa_2" data-name="Capa 2"><g id="Capa_2-2" data-name="Capa 2"><path class="cls-1" d="M46.47,36.54h0a2.72,2.72,0,0,0-2.72,4.11h0a2.72,2.72,0,0,1-3.85,3.67h0a2.72,2.72,0,0,0-4.24,2.52h0a2.72,2.72,0,0,1-5.06,1.63h0a2.72,2.72,0,0,0-4.91.44h0a2.72,2.72,0,0,1-5.27-.73h0a2.73,2.73,0,0,0-4.62-1.74h0a2.72,2.72,0,0,1-4.43-2.94h0A2.72,2.72,0,0,0,8,39.93H8a2.72,2.72,0,0,1-2.72-4.57h0a2.72,2.72,0,0,0-1.51-4.69h0a2.72,2.72,0,0,1-.47-5.3h0a2.72,2.72,0,0,0,.67-4.88h0a2.72,2.72,0,0,1,1.88-5h0A2.72,2.72,0,0,0,8.54,11.4h0a2.72,2.72,0,0,1,3.85-3.67h0a2.72,2.72,0,0,0,4.24-2.52h0a2.72,2.72,0,0,1,5.06-1.63h0a2.72,2.72,0,0,0,4.91-.44h0a2.72,2.72,0,0,1,5.27.73h0a2.73,2.73,0,0,0,4.62,1.74h0a2.72,2.72,0,0,1,4.43,2.94h0a2.72,2.72,0,0,0,3.4,3.57h0A2.72,2.72,0,0,1,47,16.69h0a2.72,2.72,0,0,0,1.51,4.69h0a2.72,2.72,0,0,1,.47,5.3h0a2.72,2.72,0,0,0-.67,4.88h0A2.72,2.72,0,0,1,46.47,36.54Z"/><circle class="cls-2" cx="30.83" cy="12.77" r="2.17"/><circle class="cls-2" cx="36.25" cy="21.66" r="1.81"/><circle class="cls-2" cx="35.45" cy="31.56" r="1.3"/></g></g></svg>