<svg xmlns="http://www.w3.org/2000/svg" viewBox="0 0 659.21 188.36"><defs><style>.cls-1{fill:#005b8a;stroke:#0b1e2c;stroke-width:11.1px;}.cls-1,.cls-10,.cls-11,.cls-13,.cls-15,.cls-4,.cls-5,.cls-9{stroke-miterlimit:10;}.cls-2{fill:#f07f11;}.cls-15,.cls-3{fill:#d72828;}.cls-10,.cls-13,.cls-4,.cls-5,.cls-9{fill:none;}.cls-11,.cls-13,.cls-4,.cls-5,.cls-9{stroke:#0c3148;}.cls-4{stroke-width:0.77px;}.cls-5{stroke-width:0.41px;}.cls-6{fill:#269037;}.cls-7{fill:#eae2b7;}.cls-16,.cls-8{fill:#0c3148;}.cls-10,.cls-11,.cls-9{stroke-width:2.4px;}.cls-10{stroke:#1d1d1b;}.cls-11{fill:#fcc009;}.cls-12{fill:#f1871c;}.cls-13{stroke-width:1.79px;}.cls-14{fill:#0b1e2c;}.cls-15{stroke:#fcc009;}.cls-16{font-size:28px;font-family:AmericanPurposeCasual02, "American Purpose Casual 02";}.cls-17{letter-spacing:-0.01em;}</style></defs><title>full-logo</title><g id="Capa_2" data-name="Capa 2"><g id="Capa_2-2" data-name="Capa 2"><circle class="cls-1" cx="94.65" cy="94.18" r="88.63"/><path class="cls-2" d="M20.09,111.58c2.22,4.92.57,11.34-4,16.5a23.43,23.43,0,0,0,2.68-9.68,23.71,23.71,0,0,0-2.18-11.17A11.48,11.48,0,0,1,20.09,111.58Z"/><path class="cls-3" d="M16.62,107.23A23.71,23.71,0,0,1,18.8,118.4a23.43,23.43,0,0,1-2.68,9.68Z"/><path class="cls-3" d="M16.62,107.23l-.5,20.85a8.65,8.65,0,0,1-2.85-4.47c-.58-2.52.47-4.4,1.61-8.19A51.27,51.27,0,0,0,16.62,107.23Z"/><path class="cls-4" d="M16.12,128.08a8.65,8.65,0,0,1-2.85-4.47c-.58-2.52.47-4.4,1.61-8.19a51.27,51.27,0,0,0,1.74-8.19,11.48,11.48,0,0,1,3.47,4.35C22.31,116.5,20.66,122.92,16.12,128.08Z"/><path class="cls-2" d="M29.38,139.78c-2.22,4.92-.57,11.34,4,16.49a23,23,0,0,1-2.68-9.67,23.58,23.58,0,0,1,2.17-11.17A11.58,11.58,0,0,0,29.38,139.78Z"/><path class="cls-3" d="M32.85,135.43a23.58,23.58,0,0,0-2.17,11.17,23,23,0,0,0,2.68,9.67Z"/><path class="cls-3" d="M32.85,135.43l.51,20.84a8.51,8.51,0,0,0,2.84-4.46c.58-2.52-.47-4.4-1.61-8.19A53.87,53.87,0,0,1,32.85,135.43Z"/><path class="cls-4" d="M33.36,156.27a8.51,8.51,0,0,0,2.84-4.46c.58-2.52-.47-4.4-1.61-8.19a53.87,53.87,0,0,1-1.74-8.19,11.58,11.58,0,0,0-3.47,4.35C27.16,144.7,28.81,151.12,33.36,156.27Z"/><path class="cls-2" d="M165.5,82c-2.21,4.92-.57,11.34,4,16.5A23.36,23.36,0,0,1,169,77.6,11.53,11.53,0,0,0,165.5,82Z"/><path class="cls-3" d="M169,77.6a23.36,23.36,0,0,0,.5,20.85Z"/><path class="cls-3" d="M169,77.6l.5,20.85A8.65,8.65,0,0,0,172.33,94c.58-2.52-.47-4.4-1.62-8.19A52.61,52.61,0,0,1,169,77.6Z"/><path class="cls-4" d="M169.48,98.45A8.65,8.65,0,0,0,172.33,94c.58-2.52-.47-4.4-1.62-8.19A52.61,52.61,0,0,1,169,77.6,11.53,11.53,0,0,0,165.5,82C163.29,86.87,164.93,93.29,169.48,98.45Z"/><path class="cls-2" d="M61.57,14.31c-1.17,2.6-.3,6,2.1,8.71a12.22,12.22,0,0,1-1.41-5.1A12.36,12.36,0,0,1,63.41,12,6,6,0,0,0,61.57,14.31Z"/><path class="cls-3" d="M63.41,12a12.36,12.36,0,0,0-1.15,5.9A12.22,12.22,0,0,0,63.67,23Z"/><path class="cls-3" d="M63.41,12l.26,11a4.53,4.53,0,0,0,1.5-2.35c.31-1.34-.24-2.33-.85-4.33A27.41,27.41,0,0,1,63.41,12Z"/><path class="cls-5" d="M63.67,23a4.53,4.53,0,0,0,1.5-2.35c.31-1.34-.24-2.33-.85-4.33A27.41,27.41,0,0,1,63.41,12a6,6,0,0,0-1.84,2.29C60.4,16.91,61.27,20.3,63.67,23Z"/><path class="cls-3" d="M26.43,44.69c0,1.17-.27,2.8-1,3a27.79,27.79,0,0,1-2.35-5.95,28.07,28.07,0,0,1-.88-9.56c.3,0-.21,2.13,1.06,5.39C24.59,41,26.4,41.87,26.43,44.69Z"/><path class="cls-2" d="M25.44,47.66c-.79.18-1.78-1.45-2.11-2-3.26-5.34-1.71-13.53-1.12-13.52a28.07,28.07,0,0,0,.88,9.56A27.79,27.79,0,0,0,25.44,47.66Z"/><path class="cls-4" d="M22.21,32.15c.3,0-.21,2.13,1.06,5.39,1.32,3.41,3.13,4.33,3.16,7.15,0,1.17-.27,2.8-1,3s-1.78-1.45-2.11-2C20.07,40.33,21.62,32.14,22.21,32.15Z"/><path class="cls-3" d="M172.47,78.56c0,1.18.27,2.8,1,3a27.35,27.35,0,0,0,2.36-6,28.26,28.26,0,0,0,.87-9.56c-.3,0,.22,2.14-1.06,5.4S172.5,75.74,172.47,78.56Z"/><path class="cls-2" d="M173.46,81.53c.79.19,1.79-1.45,2.11-2,3.27-5.34,1.71-13.53,1.12-13.53a28.26,28.26,0,0,1-.87,9.56A27.35,27.35,0,0,1,173.46,81.53Z"/><path class="cls-4" d="M176.69,66c-.3,0,.22,2.14-1.06,5.4s-3.13,4.32-3.16,7.14c0,1.18.27,2.8,1,3s1.79-1.45,2.11-2C178.84,74.21,177.28,66,176.69,66Z"/><path class="cls-3" d="M129.18,6.73c-1.74,1.29-13.83,4.35-13.68,8.51a8.09,8.09,0,0,0,.26,1.71,1.38,1.38,0,0,0,1.61,1,177.42,177.42,0,0,1,24.11-3.24,174.33,174.33,0,0,1,18.58-.23c5.44.22,10.49.67,15.09,1.25a.24.24,0,0,1,0,.48A46.92,46.92,0,0,0,160.75,21a46.38,46.38,0,0,0-11.19,8.17.7.7,0,0,0-.38.84.72.72,0,0,0,.77.52,75.55,75.55,0,0,1,33.24-.86.49.49,0,0,1,.06.94,67.45,67.45,0,0,0-30.75,21,1.09,1.09,0,0,0,.56,1.75,45.91,45.91,0,0,1,18.62,9.94.4.4,0,0,1-.26.71,54.41,54.41,0,0,0-19,3.5,16.67,16.67,0,0,0-10.74,15.37L141.55,90A98.12,98.12,0,0,1,137,115.8a3.67,3.67,0,0,0-2.45-2c-2.85-.4-4.81,4.85-11.31,12.27-5.25,6-7.81,7-9.54,7.29a12.48,12.48,0,0,1-7.18-.91,55.54,55.54,0,0,0,13.19-19.41q1.08-2.68,2.37-5.26a19.74,19.74,0,0,0,1.69-13.68,18.66,18.66,0,0,0-2.28-5.33,10.75,10.75,0,0,0-9.53-5h-.06s3.5-9.69-2.51-23.75a39.91,39.91,0,0,0-9.61-13.59,16.3,16.3,0,0,0-15.49-3.83l-.14,0c-.33.09-.66.2-1,.31a16.56,16.56,0,0,0-9.95,9.68v0a38.74,38.74,0,0,0-2,7l-.14,0a46.24,46.24,0,0,0-3.12-10.57c-.35-.73-3.12-6.27-9.39-7.67a14.17,14.17,0,0,0-14.38,5.75A9.88,9.88,0,0,1,44.73,39a9.1,9.1,0,0,1,8.07-4.54l1.14-.13a10.35,10.35,0,0,1,.57-2.42v-.05C57,25.12,86.88,15.66,86.88,15.66,104.51,10.07,125.68,7,129,6.31A.24.24,0,0,1,129.18,6.73Z"/><path class="cls-6" d="M116.44,143.54c.76.17,1.53.32,2.29.44a77.85,77.85,0,0,0,13.2,1.12c2.33,1.9,12.34,10.37,19.39,17.12a22,22,0,0,1,4.21,5.54,22.48,22.48,0,0,1,2.31,6.56c.35,1.86.55,3.23.67,4.25a5.33,5.33,0,0,1-2.24,5.09l-.48.29a6.39,6.39,0,0,1-5.62,0A23.24,23.24,0,0,1,140,170.24,51.54,51.54,0,0,0,132,157.11a52.08,52.08,0,0,0-15.72-12.56Z"/><path class="cls-7" d="M40,112.39l-4.8-13.08a206.53,206.53,0,0,1,22.43,3.83c7.22,1.66,13.82,3.57,19.74,5.56a36.66,36.66,0,0,0,34.9-12.46,1.43,1.43,0,0,1,1.72,1.34,52.12,52.12,0,0,1-7.28,18.6q-1,1.53-2,2.88h0l-24.48.77-11.12.38c-3.76-.31-7.8-.8-12.08-1.54a137.83,137.83,0,0,1-16.14-3.78Z"/><path class="cls-2" d="M70.92,76.68c1.24.37,2.25.65,3.39.92a34.19,34.19,0,0,1,9,4.84,31.64,31.64,0,0,1,8.82,9.39c-.36.41-.71.82-1.07,1.22a35.8,35.8,0,0,0-2.77,3.19c.93-1.06,1.86-2.13,2.77-3.19a31.46,31.46,0,0,1,12.38-7.73l8.45-1.56h.06a10.75,10.75,0,0,1,9.53,5,18.66,18.66,0,0,1,2.28,5.33A19.74,19.74,0,0,1,122,107.81q-1.29,2.58-2.37,5.26a55.54,55.54,0,0,1-13.19,19.41l-9.82-4.73,0-.07a51.88,51.88,0,0,0,8-8.62q1-1.35,2-2.88a52.12,52.12,0,0,0,7.28-18.6,1.43,1.43,0,0,0-1.72-1.34,36.66,36.66,0,0,1-34.9,12.46c-5.92-2-12.52-3.9-19.74-5.56a206.53,206.53,0,0,0-22.43-3.83A49.6,49.6,0,0,0,4.67,111.19,38,38,0,0,1,1.21,94.33c0-1.2.13-2.36.26-3.47A24.56,24.56,0,0,1,19.82,70L20,70a42.06,42.06,0,0,1,14.57-1c.87.15,1.83.34,2.86.59a44.66,44.66,0,0,1,11,4.2c-.05-.31-.09-.61-.13-.92a2,2,0,0,0,1,1.4,45.18,45.18,0,0,1,6.49,4.52,1.88,1.88,0,0,0,2.25.13A18.17,18.17,0,0,1,62,77a2,2,0,0,0,1.34-1.84v1.45a14.56,14.56,0,0,1,5.91-.27,12.41,12.41,0,0,1,1.62.38Z"/><path class="cls-6" d="M114.23,162.1A78.69,78.69,0,0,0,110,148.32a79.14,79.14,0,0,0-3.92-8.17l0-.05c.77.7,5.42,2.38,10.31,3.44l-.2,1A73.35,73.35,0,0,1,126,161.13c.52,1.25,1,2.46,1.42,3.66a18.44,18.44,0,0,1,.8,9.87.29.29,0,0,1,0,.09,19.49,19.49,0,0,1-3.35,7.57,5.65,5.65,0,0,1-4.7,1.63,5.43,5.43,0,0,1-4.31-3.73A78.62,78.62,0,0,0,114.23,162.1Z"/><path class="cls-6" d="M100.52,138.23,89,132.09,69.08,120.21l11.12-.38,16.45,7.92,9.82,4.73a12.48,12.48,0,0,0,7.18.91c1.73-.34,4.29-1.29,9.54-7.29,6.5-7.42,8.46-12.67,11.31-12.27a3.67,3.67,0,0,1,2.45,2,15.52,15.52,0,0,1,0,4.22c-1.54,10.24-10.29,16-15.48,18.15a.47.47,0,0,0,.16.91c2.36.4,1.87.32,4.54.68a90.33,90.33,0,0,1,10.6,2.1c.26,1.55-.06,1.6.4,2.87a34.34,34.34,0,0,1-5.19.37,77.85,77.85,0,0,1-13.2-1.12c-.76-.12-1.53-.27-2.29-.44-4.89-1.06-9.54-2.74-10.31-3.44l0,.05Z"/><path class="cls-7" d="M104.68,119.06h0a51.88,51.88,0,0,1-8,8.62l0,.07L80.2,119.83Z"/><path class="cls-8" d="M92.09,91.83a31.64,31.64,0,0,0-8.82-9.39,42,42,0,0,1,4.1-24.19,6.75,6.75,0,0,1,4.34-3.54,8.22,8.22,0,0,1,2.3-.26h.07c1.34.36,4.91,1.51,6.54,4.69a11.45,11.45,0,0,1,1,3.36,17.22,17.22,0,0,1-.1,6l-6.9,4.21L102,75a25.67,25.67,0,0,1,1.21,5.11,26.37,26.37,0,0,1,.2,5.18A31.46,31.46,0,0,0,91,93.05C91.38,92.65,91.73,92.24,92.09,91.83Z"/><path class="cls-7" d="M69.08,120.21,89,132.09a33.94,33.94,0,0,1-23.2,3.26,37.66,37.66,0,0,1-6.73-2.1,38.8,38.8,0,0,1-6.69-3.65L44,123.25a.06.06,0,0,0-.07,0l-2.55-7-.52-1.39A137.83,137.83,0,0,0,57,118.67C61.28,119.41,65.32,119.9,69.08,120.21Z"/><path class="cls-2" d="M95.25,170.43a25.24,25.24,0,0,1-6.71-11.93h0a1.08,1.08,0,0,0,.08-.19h0a.19.19,0,0,1,.27,0c10.9,14.85,17.53,11.29,17.53,11.29a27.5,27.5,0,0,0,3.69,7.9A25.42,25.42,0,0,1,95.25,170.43Z"/><path class="cls-7" d="M91.71,54.71a6.75,6.75,0,0,0-4.34,3.54,42,42,0,0,0-4.1,24.19,34.19,34.19,0,0,0-9-4.84c-1.14-.27-2.15-.55-3.39-.92h0a41.71,41.71,0,0,0,.43-15.26q-.12-.91-.27-1.77l.14,0a38.74,38.74,0,0,1,2-7v0a16.56,16.56,0,0,1,9.95-9.68c.31-.11.64-.22,1-.31l.14,0a16.3,16.3,0,0,1,15.49,3.83A39.91,39.91,0,0,1,109.34,60c6,14.06,2.51,23.75,2.51,23.75l-8.45,1.56a26.37,26.37,0,0,0-.2-5.18A25.67,25.67,0,0,0,102,75l-7.41-2.31,6.9-4.21a17.22,17.22,0,0,0,.1-6,11.45,11.45,0,0,0-1-3.36C99,56,95.42,54.81,94.08,54.45H94A8.22,8.22,0,0,0,91.71,54.71Z"/><path class="cls-7" d="M71.32,61.42a41.71,41.71,0,0,1-.43,15.26,12.41,12.41,0,0,0-1.62-.38,14.56,14.56,0,0,0-5.91.27V75.12c0-1.92,0-3.86,0-5.78,0-.34,0-.68,0-1l-.87-.56L62,67.45a1.93,1.93,0,0,1,.23-3.37l.1,0,1-.44c.05-.31.1-.7.14-1.16a14.57,14.57,0,0,0-1.82-8.51l-.25-.42,0,0-.23-.35c-.13-.19-.25-.36-.38-.53l-.26-.33a11.12,11.12,0,0,0-.9-1,4.11,4.11,0,0,0-.29-.3l-.41-.16-.29-.1a8.19,8.19,0,0,0-1.22-.32l-.16,0-.23,0-.33,0-.28,0h-.34a5.46,5.46,0,0,0-1.78.29,5,5,0,0,0-.72.3,5.77,5.77,0,0,0-1,.67,8.5,8.5,0,0,0-2,2.42,14.17,14.17,0,0,0-1.14,2.41l-.19.55a25.49,25.49,0,0,0-1,4.38A38.14,38.14,0,0,0,47.85,68c0,.52,0,1.05.08,1.58,0,.24,0,.48,0,.72.06.84.15,1.71.27,2.6,0,.31.08.61.13.92a44.66,44.66,0,0,0-11-4.2,30.13,30.13,0,0,1,6.73-22.45,14.17,14.17,0,0,1,14.38-5.75c6.27,1.4,9,6.94,9.39,7.67a46.24,46.24,0,0,1,3.12,10.57Q71.2,60.51,71.32,61.42Z"/><path class="cls-2" d="M63.64,167.64a42.29,42.29,0,0,0,1.7,7.68c-1.45-.63-13.78-6.32-17-20a27.9,27.9,0,0,1-.33-10.95.12.12,0,0,1,.12-.1.11.11,0,0,1,.11.08C49.33,147.44,55.73,165.6,63.64,167.64Z"/><path class="cls-2" d="M63.86,156.56a29.38,29.38,0,0,0,12.89,15.28A27.25,27.25,0,0,0,86.39,175a35.57,35.57,0,0,0,1.38,6,27,27,0,0,1-14.28-5.85c-8-6.55-9.44-15.72-9.73-18.49a.28.28,0,0,0,0-.09h0A.06.06,0,0,1,63.86,156.56Z"/><path class="cls-8" d="M61.65,53.92a14.57,14.57,0,0,1,1.82,8.51A1.94,1.94,0,0,1,62.33,64l-.1,0L59,65.5l3,2,.46.31a2,2,0,0,1,.88,1.58c0,1.92,0,3.86,0,5.78A2,2,0,0,1,62,77a18.17,18.17,0,0,0-4.05,2,1.88,1.88,0,0,1-2.25-.13,45.18,45.18,0,0,0-6.49-4.52,2,2,0,0,1-1-1.4c-.12-.89-.21-1.76-.27-2.6,0-.25,0-.48,0-.72,0-.53-.06-1.06-.08-1.58a38.14,38.14,0,0,1,.32-6.74,25.49,25.49,0,0,1,1-4.38l.19-.55a15,15,0,0,1,1.14-2.41,8.5,8.5,0,0,1,2-2.42,5.77,5.77,0,0,1,1-.67,5,5,0,0,1,.72-.3,5.46,5.46,0,0,1,1.78-.29h.34l.28,0,.33,0,.23,0,.16,0a8.19,8.19,0,0,1,1.22.32l.29.1a1.82,1.82,0,0,1,.7.46,11.12,11.12,0,0,1,.9,1l.26.33c.13.17.25.34.38.53l.23.35,0,0Z"/><path class="cls-8" d="M59,65.5l3.25-1.42A1.93,1.93,0,0,0,62,67.45Z"/><path class="cls-8" d="M61.65,53.92l-.25-.42Z"/><path class="cls-8" d="M61.37,53.46l-.23-.35Z"/><path class="cls-8" d="M60.76,52.58l-.26-.33Z"/><path class="cls-8" d="M57.39,50.37l-.16,0Z"/><path class="cls-8" d="M56.39,50.24h0Z"/><path class="cls-3" d="M63.77,156.54h0s0,0,0,0v0a39.44,39.44,0,0,0-.33,9c0,.68.12,1.35.21,2-7.91-2-14.31-20.2-15.36-23.32a.11.11,0,0,0-.11-.08l.14-.13a29.65,29.65,0,0,1,2.34-8l.05,0q.51.54,1.08,1.08a27.78,27.78,0,0,0,7.14,4.94,50.68,50.68,0,0,0,10,3,51.79,51.79,0,0,0,15.53.58,24.77,24.77,0,0,0,16.1-7.38l5.56,1.92a79.14,79.14,0,0,1,3.92,8.17l-.34.13c-1.12,2.21-4.48,8.46-4.25,14.8a26.73,26.73,0,0,0,1,6.38s-6.63,3.56-17.53-11.29a.19.19,0,0,0-.27,0h0a.18.18,0,0,0-.08.19h0a29.47,29.47,0,0,0-2.49,11.17,35.08,35.08,0,0,0,.34,5.32,27.25,27.25,0,0,1-9.64-3.15,29.38,29.38,0,0,1-12.89-15.28A.06.06,0,0,0,63.77,156.54Z"/><path class="cls-2" d="M44,123.25l8.4,6.35a38.8,38.8,0,0,0,6.69,3.65,37.66,37.66,0,0,0,6.73,2.1A33.94,33.94,0,0,0,89,132.09l11.5,6.14a24.77,24.77,0,0,1-16.1,7.38A51.79,51.79,0,0,1,68.89,145a50.68,50.68,0,0,1-10-3,27.78,27.78,0,0,1-7.14-4.94q-.57-.54-1.08-1.08a28.6,28.6,0,0,1-3.47-4.52c-1.12-2.73-2.23-5.46-3.35-8.18a.07.07,0,0,1,0-.1A.06.06,0,0,1,44,123.25Z"/><path class="cls-6" d="M40.86,114.89l.52,1.39-.06,0a48.54,48.54,0,0,1-7.58-3.52c-.9-.52-1.74-1.05-2.51-1.58a1.55,1.55,0,0,1-.7-1,1.41,1.41,0,0,1,0-.21v0a.93.93,0,0,1,1.16-.86c.55.13,1.13.28,1.71.47A31.37,31.37,0,0,1,40,112.39Z"/><path class="cls-9" d="M35.15,99.31A49.6,49.6,0,0,0,4.67,111.19,38,38,0,0,1,1.21,94.33c0-1.2.13-2.36.26-3.47A24.56,24.56,0,0,1,19.82,70L20,70a42.06,42.06,0,0,1,14.57-1c.87.15,1.83.34,2.86.59"/><path class="cls-9" d="M88.25,96.24A35.8,35.8,0,0,1,91,93.05C90.11,94.11,89.18,95.18,88.25,96.24Z"/><path class="cls-9" d="M62.46,67.76a2,2,0,0,1,.88,1.58"/><path class="cls-9" d="M62.23,64.08A1.93,1.93,0,0,0,62,67.45"/><path class="cls-9" d="M63.47,62.43A1.94,1.94,0,0,1,62.33,64"/><path class="cls-9" d="M61.4,53.5l.25.42"/><path class="cls-9" d="M61.14,53.11l.23.35"/><path class="cls-9" d="M60.5,52.25l.26.33"/><path class="cls-9" d="M58.61,50.69l.29.1a1.82,1.82,0,0,1,.7.46"/><path class="cls-9" d="M57.23,50.34l.16,0"/><path class="cls-9" d="M56.67,50.26l.33,0"/><path class="cls-9" d="M56.05,50.23h.34"/><path class="cls-9" d="M52.53,51.49a5.77,5.77,0,0,1,1-.67"/><path class="cls-9" d="M49.36,56.32a15,15,0,0,1,1.14-2.41"/><path class="cls-9" d="M48,70.29c0-.25,0-.48,0-.72,0-.53-.06-1.06-.08-1.58a38.14,38.14,0,0,1,.32-6.74,25.49,25.49,0,0,1,1-4.38"/><path class="cls-9" d="M63.36,75.12A2,2,0,0,1,62,77a18.17,18.17,0,0,0-4.05,2,1.88,1.88,0,0,1-2.25-.13,45.18,45.18,0,0,0-6.49-4.52,2,2,0,0,1-1-1.4"/><path class="cls-9" d="M43.93,123.24a.06.06,0,0,1,.07,0l8.4,6.35a38.8,38.8,0,0,0,6.69,3.65,37.66,37.66,0,0,0,6.73,2.1A33.94,33.94,0,0,0,89,132.09l11.5,6.14a24.77,24.77,0,0,1-16.1,7.38A51.79,51.79,0,0,1,68.89,145a50.68,50.68,0,0,1-10-3,27.78,27.78,0,0,1-7.14-4.94q-.57-.54-1.08-1.08a28.6,28.6,0,0,1-3.47-4.52c-1.12-2.73-2.23-5.46-3.35-8.18a.07.07,0,0,1,0-.1"/><path class="cls-9" d="M43.94,123.26v0l-2.55-7-.52-1.39-.91-2.5-4.8-13.08a206.53,206.53,0,0,1,22.43,3.83c7.22,1.66,13.82,3.57,19.74,5.56a36.66,36.66,0,0,0,34.9-12.46,1.43,1.43,0,0,1,1.72,1.34,52.12,52.12,0,0,1-7.28,18.6q-1,1.53-2,2.88a51.88,51.88,0,0,1-8,8.62"/><line class="cls-9" x1="80.2" y1="119.83" x2="104.68" y2="119.06"/><path class="cls-9" d="M40.71,114.84l.15,0A137.83,137.83,0,0,0,57,118.67c4.28.74,8.32,1.23,12.08,1.54"/><path class="cls-9" d="M40,112.44l-.08,0a31.37,31.37,0,0,0-6.56-2.85c-.58-.19-1.16-.34-1.71-.47a.93.93,0,0,0-1.16.86v0a1.41,1.41,0,0,0,0,.21,1.55,1.55,0,0,0,.7,1c.77.53,1.61,1.06,2.51,1.58a48.54,48.54,0,0,0,7.58,3.52"/><path class="cls-9" d="M106,139.91c0,.05,0,.11.12.19.77.7,5.42,2.38,10.31,3.44.76.17,1.53.32,2.29.44a77.85,77.85,0,0,0,13.2,1.12,34.34,34.34,0,0,0,5.19-.37c-.46-1.27-.14-1.32-.4-2.87a90.33,90.33,0,0,0-10.6-2.1c-2.67-.36-2.18-.28-4.54-.68a.47.47,0,0,1-.16-.91c5.19-2.11,13.94-7.91,15.48-18.15a15.52,15.52,0,0,0,0-4.22,3.67,3.67,0,0,0-2.45-2c-2.85-.4-4.81,4.85-11.31,12.27-5.25,6-7.81,7-9.54,7.29a12.48,12.48,0,0,1-7.18-.91"/><path class="cls-9" d="M100.52,138.23l5.56,1.92a79.14,79.14,0,0,1,3.92,8.17,78.49,78.49,0,0,1,5.86,31.9,5.43,5.43,0,0,0,4.31,3.73,5.65,5.65,0,0,0,4.7-1.63,19.49,19.49,0,0,0,3.35-7.57.29.29,0,0,0,0-.09,18.44,18.44,0,0,0-.8-9.87c-.42-1.2-.9-2.41-1.42-3.66a73.35,73.35,0,0,0-9.78-16.58A52.08,52.08,0,0,1,132,157.11,51.54,51.54,0,0,1,140,170.24a23.24,23.24,0,0,0,10.15,13.66,6.39,6.39,0,0,0,5.62,0l.48-.29a5.33,5.33,0,0,0,2.24-5.09c-.12-1-.32-2.39-.67-4.25a22.48,22.48,0,0,0-2.31-6.56,22,22,0,0,0-4.21-5.54c-7-6.75-17.06-15.22-19.39-17.12l-.45-.36"/><path class="cls-9" d="M137,115.8A98.12,98.12,0,0,0,141.55,90l.08-7.15a16.67,16.67,0,0,1,10.74-15.37,54.41,54.41,0,0,1,19-3.5.4.4,0,0,0,.26-.71,45.91,45.91,0,0,0-18.62-9.94,1.09,1.09,0,0,1-.56-1.75,67.45,67.45,0,0,1,30.75-21,.49.49,0,0,0-.06-.94A75.55,75.55,0,0,0,150,30.5a.72.72,0,0,1-.77-.52.7.7,0,0,1,.38-.84A46.38,46.38,0,0,1,160.75,21a46.92,46.92,0,0,1,14.41-4.79.24.24,0,0,0,0-.48c-4.6-.58-9.65-1-15.09-1.25a174.33,174.33,0,0,0-18.58.23,177.42,177.42,0,0,0-24.11,3.24,1.38,1.38,0,0,1-1.61-1,8.09,8.09,0,0,1-.26-1.71c-.15-4.16,11.94-7.22,13.68-8.51a.24.24,0,0,0-.19-.42c-3.31.7-24.48,3.76-42.11,9.35,0,0-29.9,9.46-32.36,16.21v.05a10.35,10.35,0,0,0-.57,2.42c.75-.11,6-1.4,10.54,2a12.37,12.37,0,0,1,4.41,6.42"/><path class="cls-9" d="M77.51,37.58a20.1,20.1,0,0,1,21.1-7.67c9.72,2.61,13.14,12,13.41,12.84"/><path class="cls-9" d="M44.16,47.16A9.88,9.88,0,0,1,44.73,39a9.1,9.1,0,0,1,8.07-4.54l.77,0"/><path class="cls-10" d="M37.45,69.78a.88.88,0,0,1,0-.17"/><path class="cls-9" d="M56.05,50.23a5.46,5.46,0,0,0-1.78.29,5,5,0,0,0-.72.3,5.77,5.77,0,0,0-1,.67,8.5,8.5,0,0,0-2,2.42,14.17,14.17,0,0,0-1.14,2.41l-.19.55a25.49,25.49,0,0,0-1,4.38A38.14,38.14,0,0,0,47.85,68c0,.52,0,1.05.08,1.58,0,.24,0,.48,0,.72.06.84.15,1.71.27,2.6,0,.31.08.61.13.92a44.66,44.66,0,0,0-11-4.2,30.13,30.13,0,0,1,6.73-22.45,14.17,14.17,0,0,1,14.38-5.75c6.27,1.4,9,6.94,9.39,7.67a46.24,46.24,0,0,1,3.12,10.57q.15.85.27,1.77a41.71,41.71,0,0,1-.43,15.26,12.41,12.41,0,0,0-1.62-.38,14.56,14.56,0,0,0-5.91.27V75.12c0-1.92,0-3.86,0-5.78,0-.34,0-.68,0-1l-.87-.56L62,67.45"/><path class="cls-9" d="M57.23,50.34l-.23,0-.33,0-.28,0"/><path class="cls-9" d="M60.5,52.25a11.12,11.12,0,0,0-.9-1,4.11,4.11,0,0,0-.29-.3l-.41-.16-.29-.1a8.19,8.19,0,0,0-1.22-.32"/><path class="cls-9" d="M61.14,53.11c-.13-.19-.25-.36-.38-.53"/><path class="cls-9" d="M61.4,53.5l0,0"/><path class="cls-9" d="M62.23,64.08l.1,0,1-.44c.05-.31.1-.7.14-1.16a14.57,14.57,0,0,0-1.82-8.51"/><path class="cls-9" d="M70.89,76.68h0c1.24.37,2.25.65,3.39.92a34.19,34.19,0,0,1,9,4.84"/><path class="cls-9" d="M71.19,59.63a38.74,38.74,0,0,1,2-7v0a16.56,16.56,0,0,1,9.95-9.68c.31-.11.64-.22,1-.31l.14,0a16.3,16.3,0,0,1,15.49,3.83A39.91,39.91,0,0,1,109.34,60c6,14.06,2.51,23.75,2.51,23.75h.06a10.75,10.75,0,0,1,9.53,5,18.66,18.66,0,0,1,2.28,5.33A19.74,19.74,0,0,1,122,107.81q-1.29,2.58-2.37,5.26a55.54,55.54,0,0,1-13.19,19.41l-9.82-4.73L80.2,119.83l-11.12.38L89,132.09"/><path class="cls-9" d="M88.62,158.3a.19.19,0,0,1,.27,0c10.9,14.85,17.53,11.29,17.53,11.29a27.5,27.5,0,0,0,3.69,7.9,25,25,0,0,1-21.57-19"/><path class="cls-9" d="M88.54,158.49a.18.18,0,0,1,.08-.19"/><path class="cls-9" d="M109.66,148.45c-1.12,2.21-4.48,8.46-4.25,14.8a26.73,26.73,0,0,0,1,6.38"/><path class="cls-9" d="M63.77,156.55a.28.28,0,0,1,0,.09,39.44,39.44,0,0,0-.33,9c0,.68.12,1.35.21,2"/><path class="cls-9" d="M63.79,156.42s0,.08,0,.12"/><path class="cls-9" d="M48.31,144.11a29.65,29.65,0,0,1,2.34-8"/><path class="cls-9" d="M86.39,175a35.08,35.08,0,0,1-.34-5.32,29.47,29.47,0,0,1,2.49-11.17h0a1.08,1.08,0,0,0,.08-.19h0"/><path class="cls-9" d="M63.64,167.64a42.29,42.29,0,0,0,1.7,7.68c-1.45-.63-13.78-6.32-17-20a27.9,27.9,0,0,1-.33-10.95.12.12,0,0,1,.12-.1.11.11,0,0,1,.11.08C49.33,147.44,55.73,165.6,63.64,167.64Z"/><path class="cls-9" d="M86.39,175a35.57,35.57,0,0,0,1.38,6,27,27,0,0,1-14.28-5.85c-8-6.55-9.44-15.72-9.73-18.49v0s0,0,0,0h0a.06.06,0,0,1,.09,0,29.38,29.38,0,0,0,12.89,15.28A27.25,27.25,0,0,0,86.39,175Z"/><path class="cls-9" d="M91,93.05c.36-.4.71-.81,1.07-1.22a31.64,31.64,0,0,0-8.82-9.39,42,42,0,0,1,4.1-24.19,6.75,6.75,0,0,1,4.34-3.54,8.22,8.22,0,0,1,2.3-.26h.07c1.34.36,4.91,1.51,6.54,4.69a11.45,11.45,0,0,1,1,3.36,17.22,17.22,0,0,1-.1,6l-6.9,4.21L102,75a25.67,25.67,0,0,1,1.21,5.11,26.37,26.37,0,0,1,.2,5.18A31.46,31.46,0,0,0,91,93.05Z"/><line class="cls-9" x1="103.4" y1="85.32" x2="111.85" y2="83.76"/><path class="cls-11" d="M173.22,145.32h0a2.41,2.41,0,0,0-2.41,3.64h0a2.41,2.41,0,0,1-3.41,3.24h0a2.41,2.41,0,0,0-3.75,2.23h0a2.41,2.41,0,0,1-4.48,1.45h0a2.4,2.4,0,0,0-4.34.38h0a2.41,2.41,0,0,1-4.66-.64h0a2.41,2.41,0,0,0-4.08-1.54h0a2.41,2.41,0,0,1-3.92-2.6h0a2.41,2.41,0,0,0-3-3.16h0a2.4,2.4,0,0,1-2.4-4h0a2.41,2.41,0,0,0-1.34-4.15h0a2.41,2.41,0,0,1-.42-4.69h0a2.41,2.41,0,0,0,.6-4.32h0a2.41,2.41,0,0,1,1.66-4.4h0a2.41,2.41,0,0,0,2.41-3.64h0a2.4,2.4,0,0,1,3.4-3.24h0a2.41,2.41,0,0,0,3.75-2.23h0a2.41,2.41,0,0,1,4.48-1.45h0a2.4,2.4,0,0,0,4.34-.38h0a2.41,2.41,0,0,1,4.66.64h0a2.41,2.41,0,0,0,4.08,1.54h0a2.41,2.41,0,0,1,3.93,2.6h0a2.4,2.4,0,0,0,3,3.16h0a2.41,2.41,0,0,1,2.41,4h0a2.41,2.41,0,0,0,1.34,4.15h0a2.41,2.41,0,0,1,.41,4.69h0a2.41,2.41,0,0,0-.59,4.32h0A2.41,2.41,0,0,1,173.22,145.32Z"/><circle class="cls-12" cx="159.38" cy="124.3" r="1.92"/><circle class="cls-12" cx="164.17" cy="132.16" r="1.6"/><circle class="cls-12" cx="163.47" cy="140.91" r="1.15"/><path class="cls-13" d="M4.67,111.19c-2.5-12,1.38-24.38,10.26-31.85,11.3-9.51,29-9.67,41.88.42"/><path class="cls-2" d="M169.13,16.87a30.14,30.14,0,0,0-10.46,3.87c-1.91,1.15-3.34,2.19-5.45,3.7-1.91,1.37-3.31,3.24-5.12,4.5-.46-.86.53-2.83,1-3.57,2.22-3.64,4.47-7.24,8-9.63a2.68,2.68,0,0,1,1.26-.29,14.27,14.27,0,0,1,1.46-.07c4,0,8.08.12,12.11.4l-1.37.63Z"/><path class="cls-2" d="M165.84,29.46c1.81,0,6.93-.25,11.24,0a6.26,6.26,0,0,1,2.86,1,49,49,0,0,0-6.62,3,78.44,78.44,0,0,0-12,7.69,40.6,40.6,0,0,0-3.33,3c-.9.88-1.53,2-2.42,2.86s-2.47,2.29-2.67,2.18"/><path class="cls-2" d="M164.44,59.67c1.7.29,3.3,2.5,4.91,3.09a53.92,53.92,0,0,0-8.58,1.05,47,47,0,0,0-7.5,2.29c-1.81.71-3.7,1.56-5.45,2.43,1-2,4.53-3.8,6.45-4.76,1.27-.62,2.56-1.18,3.86-1.71"/><path class="cls-14" d="M272.28,132.1q-6.72,3.19-13.77,6.69t-13.7,6.84a29.38,29.38,0,0,1-1.47-2.76,22.38,22.38,0,0,1-1-2.67c-.29-.93-.57-1.93-.83-3s-.53-2.35-.81-3.81q-1.93-10.27-3.36-20.33t-2.55-20.71c-.39-1.15-.88-2.49-1.44-4A32,32,0,0,1,232,83.94a26.44,26.44,0,0,1,3-2.39c1.39-1,3-2,4.76-3s3.72-2,5.8-3.11,4.09-2,6.07-2.84,3.84-1.55,5.6-2.12a22.74,22.74,0,0,1,4.35-1.06,23.45,23.45,0,0,1,.24,2.48c0,1,.09,2,.12,3a26.89,26.89,0,0,1,0,2.86,10,10,0,0,1-.27,2,69,69,0,0,0-8.19,2.87,33.44,33.44,0,0,0-7.85,4.5c0,.93.13,2.24.32,4s.4,3.46.63,5.28.49,3.59.74,5.3.46,3,.62,4c1-.46,2.23-1.08,3.73-1.87s3.06-1.55,4.68-2.3,3.19-1.4,4.72-2a16.72,16.72,0,0,1,3.72-1,44.46,44.46,0,0,1,.55,5.33,19.93,19.93,0,0,1-.28,5,61.48,61.48,0,0,0-7.8,3.19c-2.72,1.32-5.28,2.69-7.68,4.13.19,1,.37,2.07.57,3.28s.38,2.43.58,3.66.44,2.44.72,3.61.55,2.22.85,3.15c1-.45,2.32-1.09,4-1.9s3.4-1.61,5.12-2.4,3.34-1.52,4.84-2.17,2.55-1.09,3.18-1.32a18.37,18.37,0,0,1,1.73,4.64Q271.84,129.41,272.28,132.1Z"/><path class="cls-14" d="M306.18,118.78q-5.54,2.3-11.61,4.74t-11.83,4.93a9.36,9.36,0,0,1-2.81.92,5.57,5.57,0,0,1-2.08-.45,31.25,31.25,0,0,1-1.2-4.63c-.3-1.67-.55-3.31-.73-4.92q-.65-6.09-1.29-13c-.43-4.61-.84-9.21-1.23-13.83s-.8-9.14-1.18-13.56-.8-8.5-1.24-12.22c1.13-.77,2.44-1.58,4-2.44a35.55,35.55,0,0,1,4.62-2.22,9,9,0,0,1,2.06-.57c.64-.1,1,.23,1.12,1q.69,5.46,1.28,12.1t1.11,13.63q.53,7,1.08,13.8t1.23,12.46q4.35-1.82,8.78-3.52a62.15,62.15,0,0,1,8-2.54c.24.62.5,1.38.76,2.29a27.46,27.46,0,0,1,.64,2.86c.17,1,.31,2,.42,2.9A15.56,15.56,0,0,1,306.18,118.78Z"/><path class="cls-14" d="M355.28,102.55q-7.06,2.3-14.52,4.86t-14.46,5a30.21,30.21,0,0,1-1.11-2.93,24.51,24.51,0,0,1-.67-2.78c-.18-1-.32-2-.44-3.09s-.23-2.39-.31-3.89q-.61-10.42-.74-20.59t.13-20.86c-.24-1.19-.55-2.58-.92-4.17a32.24,32.24,0,0,1-.74-4.51,24.37,24.37,0,0,1,3.32-2q2.24-1.17,5.1-2.35t6.14-2.35c2.2-.77,4.32-1.45,6.39-2s4-1,5.82-1.39a22.5,22.5,0,0,1,4.45-.49,20.13,20.13,0,0,1-.07,2.49c-.08,1-.17,2-.26,3s-.23,2-.4,2.83a12,12,0,0,1-.52,2,67.66,67.66,0,0,0-8.5,1.8,33,33,0,0,0-8.36,3.46c-.1.91-.16,2.23-.19,3.94s-.05,3.5-.05,5.33,0,3.62.06,5.35.07,3.06.11,4c1-.32,2.34-.78,3.93-1.37s3.23-1.15,4.93-1.68,3.35-1,4.94-1.35a16.38,16.38,0,0,1,3.82-.53,47.33,47.33,0,0,1-.13,5.36,19.84,19.84,0,0,1-.93,4.94A61.2,61.2,0,0,0,343,80.69q-4.29,1.43-8.14,3.11c.06,1,.11,2.1.14,3.32s.07,2.46.12,3.71.12,2.48.24,3.67.27,2.28.44,3.23c1-.32,2.44-.78,4.22-1.36s3.58-1.16,5.39-1.73,3.51-1.08,5.07-1.54,2.67-.75,3.33-.89A18.19,18.19,0,0,1,354.88,97C355.09,98.9,355.21,100.74,355.28,102.55Z"/><path class="cls-14" d="M359.21,96.66a34.64,34.64,0,0,1,.92-6.16,26.18,26.18,0,0,1,2-5.59,11.53,11.53,0,0,0,5.5,4.41,11.18,11.18,0,0,0,6.8.34,11.44,11.44,0,0,0,5-2.52,6,6,0,0,0,2-4.65,4.8,4.8,0,0,0-2-3.92,15.67,15.67,0,0,0-4.58-2.26q-2.64-.82-5.3-1.38a15,15,0,0,1-4.06-1.31,12.67,12.67,0,0,1-5.22-4.43,13.61,13.61,0,0,1-2.13-7.73A31.18,31.18,0,0,1,359.66,52a32.34,32.34,0,0,1,4.1-8.36,33.06,33.06,0,0,1,6.31-6.86,34.74,34.74,0,0,1,8.13-5,21.46,21.46,0,0,1,4.47-1.35,18.73,18.73,0,0,1,4.72-.35,10.26,10.26,0,0,1,4.16,1.1,5.57,5.57,0,0,1,2.66,3,17.78,17.78,0,0,1,.17,7.34A31,31,0,0,1,392.15,49a5.2,5.2,0,0,1-1.8,1.76,29.72,29.72,0,0,1-3.07,1.75A30.15,30.15,0,0,1,383.92,54a15,15,0,0,1-2.75.78,21.4,21.4,0,0,0,1.44-4.32c.38-1.69.71-3.22,1-4.6.14-1.65-.3-2.61-1.33-2.88a4.92,4.92,0,0,0-3.46.54,15.79,15.79,0,0,0-3.76,2.9A17.73,17.73,0,0,0,372.38,50a15.9,15.9,0,0,0-1.52,4,11.54,11.54,0,0,0-.27,3.94,6.63,6.63,0,0,0,2.47,4.66,13.87,13.87,0,0,0,5.55,2.76q3.36.73,6.3,1.64a17.1,17.1,0,0,1,5,2.42,10.71,10.71,0,0,1,3.3,3.84,13.27,13.27,0,0,1,1.24,5.85A17.1,17.1,0,0,1,392.74,87a19,19,0,0,1-4.64,5.88,25.63,25.63,0,0,1-6.47,4,39.92,39.92,0,0,1-7.11,2.34,21.45,21.45,0,0,1-9.24.36A13.56,13.56,0,0,1,359.21,96.66Z"/><path class="cls-14" d="M411,88.89A20.12,20.12,0,0,1,408.66,90a23.62,23.62,0,0,1-2.91.91,16.51,16.51,0,0,1-3.14.45,9.1,9.1,0,0,1-3-.32,42.73,42.73,0,0,1-.36-6.11q0-3.68.43-9.29c0-.55,0-1.16.12-1.82s.12-1.52.2-2.62.21-2.49.41-4.22.45-4,.76-6.77.7-6.18,1.18-10.18,1.09-8.81,1.81-14.48c-.13-1-.31-2-.52-3s-.42-2-.6-2.93A43.91,43.91,0,0,1,410.47,26a46.25,46.25,0,0,1,7.84-2.2,31.47,31.47,0,0,1,8.85-.46,15.88,15.88,0,0,1,7.32,2.46,12.81,12.81,0,0,1,4.74,5.88,21.14,21.14,0,0,1,1.19,9.82,30.54,30.54,0,0,1-7.69,18.25,31.1,31.1,0,0,1-7.39,6,27.29,27.29,0,0,1-8.78,3.3c-.71.13-1.46.24-2.25.32a22.55,22.55,0,0,1-2.27.15c-.16,1.75-.33,3.4-.51,4.93s-.3,3.08-.37,4.63-.14,3.11-.19,4.69S410.94,87.06,411,88.89Zm4.82-53c-.48,4-.89,7.22-1.21,9.77s-.58,4.62-.77,6.22-.33,2.86-.4,3.76-.14,1.73-.19,2.48a9.1,9.1,0,0,0,2.85-.08,20.42,20.42,0,0,0,4.7-1.47,13.63,13.63,0,0,0,3.91-2.71,13.11,13.11,0,0,0,2.79-4.3,19.62,19.62,0,0,0,1.32-6.24q.38-4.86-2.16-7.15c-1.7-1.52-4.19-2-7.45-1.37A17.35,17.35,0,0,0,415.86,35.84Z"/><path class="cls-14" d="M442.07,83.84a96,96,0,0,1,1-10.69q.85-5.73,1.88-11.64T447,49.84q1-5.75,1.68-10.77A14.23,14.23,0,0,1,452.11,38c1.28-.24,2.61-.45,4-.63a10.22,10.22,0,0,1,1.65-.07c.53,0,.74.29.63.83Q456.3,49,454.29,60t-3.14,22.39a9.9,9.9,0,0,1-1.89.63c-.76.18-1.57.35-2.41.5s-1.68.25-2.51.31A17.52,17.52,0,0,1,442.07,83.84Z"/><path class="cls-14" d="M473.5,79.35a14.88,14.88,0,0,1-2.56.82c-1,.24-2.08.45-3.22.61s-2.24.3-3.33.39a19.57,19.57,0,0,1-2.9.09q.27-4,1.14-10t2-12.55q1.13-6.6,2.38-13.31t2.42-12.32q1.17-5.59,2.18-9.56a37.61,37.61,0,0,1,1.53-5.1,18.36,18.36,0,0,1,2.31-.66c.89-.2,1.81-.38,2.77-.53s1.9-.24,2.84-.3a18.9,18.9,0,0,1,2.5,0q.76,4.38,1.66,8.31t1.95,7.87q1,3.95,2.37,8.15c.9,2.79,1.95,5.84,3.15,9.12q.36-3.12,1.15-7.88t1.84-9.76q1.05-5,2.13-9.6t2-7.42a22.56,22.56,0,0,1,5.79-1.25c2.17-.2,4.1-.31,5.79-.35q-1.54,7.05-3.12,14.66t-3,15.55q-1.47,7.95-2.75,16.25t-2.17,16.66a19.52,19.52,0,0,1-3.8,1.16,36.8,36.8,0,0,1-4.31.67A39.75,39.75,0,0,1,489,73.89q-1.9-3.51-3.87-8.1t-3.72-9.89a75,75,0,0,1-2.69-10.58q-1.87,8.45-3.12,16.65T473.5,79.35Z"/><path class="cls-14" d="M506.76,77.4A109.47,109.47,0,0,1,509,65.88q1.55-6.15,3.3-12.48t3.48-12.49q1.74-6.15,3-11.55a14.92,14.92,0,0,1,3.73-.85c1.38-.15,2.81-.26,4.28-.32a11.31,11.31,0,0,1,1.76.07c.55.08.75.4.57,1q-3.4,11.67-6.78,23.38t-5.84,24a10.13,10.13,0,0,1-2.06.51c-.83.12-1.7.23-2.61.31a24.58,24.58,0,0,1-2.7.11A15.58,15.58,0,0,1,506.76,77.4Z"/><path class="cls-14" d="M556.69,76.77q-6,.11-12.54.18t-12.82.26a9.26,9.26,0,0,1-2.94-.18,5.68,5.68,0,0,1-1.77-1.17,30.51,30.51,0,0,1,.57-4.75c.33-1.66.7-3.28,1.12-4.85q1.62-5.9,3.55-12.56t3.9-13.32q2-6.66,3.86-13.05t3.31-11.83c1.33-.3,2.85-.58,4.58-.83a36.82,36.82,0,0,1,5.11-.37,9.36,9.36,0,0,1,2.13.22c.63.15.86.59.68,1.31q-1.33,5.35-3.23,11.74t-3.94,13.09q-2.07,6.72-4,13.24T540.81,66q4.71-.11,9.46-.07a61.8,61.8,0,0,1,8.38.56,22.31,22.31,0,0,1-.13,2.4,25.82,25.82,0,0,1-.44,2.9c-.21,1-.43,2-.67,2.86A15.2,15.2,0,0,1,556.69,76.77Z"/><path class="cls-14" d="M592.28,78.44q-6-.21-12.53-.48t-12.81-.41a9.43,9.43,0,0,1-2.93-.32A5.85,5.85,0,0,1,562.3,76a30.19,30.19,0,0,1,.82-4.72q.61-2.46,1.37-4.79,1.92-5.79,4.19-12.35T573.27,41l4.53-12.84q2.21-6.29,3.92-11.63c1.34-.24,2.88-.44,4.61-.6a36.73,36.73,0,0,1,5.13-.1,9.36,9.36,0,0,1,2.11.32c.63.19.83.64.62,1.35q-1.62,5.26-3.84,11.55t-4.62,12.88c-1.6,4.39-3.18,8.73-4.71,13s-2.89,8.23-4,11.87q4.71.14,9.46.41a61.76,61.76,0,0,1,8.34,1,23.56,23.56,0,0,1-.26,2.39,24.42,24.42,0,0,1-.59,2.87c-.26,1-.53,1.93-.82,2.82A15.57,15.57,0,0,1,592.28,78.44Z"/><path class="cls-14" d="M639.39,20.49a15.65,15.65,0,0,1,8.16,3,12.86,12.86,0,0,1,4.38,6.33,21.32,21.32,0,0,1,.68,9.09,47.41,47.41,0,0,1-2.86,11.21,75.52,75.52,0,0,1-6.41,12.85,51.8,51.8,0,0,1-8.53,10.44,34.24,34.24,0,0,1-10.26,6.7A23.25,23.25,0,0,1,613,81.72q-5.76-.6-8.87-3.53a14.06,14.06,0,0,1-4.1-7.35,26.74,26.74,0,0,1-.13-9.94,57.22,57.22,0,0,1,3-11.29,64.53,64.53,0,0,1,6.33-12.49A52.1,52.1,0,0,1,617.67,27a35.29,35.29,0,0,1,10-6.54,22.8,22.8,0,0,1,11.16-1.79A4,4,0,0,1,639.39,20.49ZM634.71,31.2a10,10,0,0,0-5.66,1.86,26.28,26.28,0,0,0-5.38,4.85A43.07,43.07,0,0,0,619,44.57a52.38,52.38,0,0,0-3.5,7.28,59.65,59.65,0,0,0-2.33,7.4,22.34,22.34,0,0,0-.69,6.12,8.08,8.08,0,0,0,1.32,4.33,5.23,5.23,0,0,0,3.71,2,8.12,8.12,0,0,0,5.29-1.45A22.63,22.63,0,0,0,628,65.5a46.45,46.45,0,0,0,4.76-7.19,72.49,72.49,0,0,0,4-8.77q3.13-8.15,3-12.89C639.61,33.48,637.94,31.66,634.71,31.2Z"/><path class="cls-3" d="M648.83,85.47a9.41,9.41,0,0,1-2.43-.33,3.87,3.87,0,0,1-2-1.23,3.83,3.83,0,0,1-.87-2.34,7.08,7.08,0,0,1,1-3.56,8.33,8.33,0,0,1,4.44-4.07,10.77,10.77,0,0,1,5.56-.68,5.24,5.24,0,0,1,4.22,2.63,5.94,5.94,0,0,1-.21,5.15,17.65,17.65,0,0,1-1.64,2.81,19.83,19.83,0,0,1-2.68,3.06,24.38,24.38,0,0,1-3.9,3,27.48,27.48,0,0,1-5.3,2.52c-1.13-.18-1.78-.56-1.93-1.13a29.5,29.5,0,0,0,3.49-2.43A6.25,6.25,0,0,0,648.83,85.47Z"/><path class="cls-8" d="M271.26,174.35q-2.24,1.07-4.59,2.24l-4.56,2.3c-.19-.33-.36-.64-.49-.92a7.82,7.82,0,0,1-.34-.89c-.1-.31-.2-.64-.28-1s-.18-.78-.28-1.27q-.64-3.42-1.14-6.77t-.87-6.91c-.13-.38-.29-.82-.48-1.33a10.91,10.91,0,0,1-.45-1.46,8.63,8.63,0,0,1,1-.8,17.77,17.77,0,0,1,1.59-1c.59-.34,1.23-.69,1.92-1s1.37-.68,2-1,1.28-.52,1.87-.71a7,7,0,0,1,1.45-.36,6,6,0,0,1,.08.83c0,.32,0,.65,0,1s0,.66,0,1a3.88,3.88,0,0,1-.09.68,22.67,22.67,0,0,0-2.73,1,11.38,11.38,0,0,0-2.61,1.51c0,.31.05.75.11,1.31s.14,1.16.22,1.77.16,1.19.25,1.76.15,1,.21,1.32c.33-.16.74-.36,1.24-.63s1-.52,1.56-.77,1.06-.47,1.57-.66a5.22,5.22,0,0,1,1.24-.34,14.56,14.56,0,0,1,.19,1.77,7.27,7.27,0,0,1-.09,1.68,19.37,19.37,0,0,0-2.6,1.07c-.9.44-1.76.9-2.55,1.38.06.32.12.69.19,1.09s.13.81.2,1.22.15.82.24,1.2.19.74.28,1.05l1.34-.63,1.71-.81,1.6-.73c.5-.22.86-.36,1.07-.44a6.53,6.53,0,0,1,.58,1.54C271,173.15,271.16,173.75,271.26,174.35Z"/><path class="cls-8" d="M282.57,169.41c-1.2.56-2.47,1.13-3.8,1.73s-2.63,1.2-3.88,1.8a3.45,3.45,0,0,1-.92.34,2.08,2.08,0,0,1-.7-.12,10.58,10.58,0,0,1-.46-1.53c-.12-.56-.22-1.1-.31-1.63-.19-1.35-.39-2.78-.59-4.31s-.4-3.06-.59-4.59-.38-3-.57-4.5-.38-2.82-.57-4.06c.36-.27.79-.55,1.29-.86a12.06,12.06,0,0,1,1.5-.8,3.64,3.64,0,0,1,.69-.22c.21,0,.34.07.38.31.2,1.21.4,2.55.58,4s.37,3,.55,4.52.36,3.08.54,4.59.37,2.88.57,4.13q1.43-.66,2.88-1.29a20.84,20.84,0,0,1,2.63-.94c.09.2.18.45.28.75s.18.61.26.94.12.65.17,1A4.94,4.94,0,0,1,282.57,169.41Z"/><path class="cls-15" d="M287.92,166.3c0-.79,0-1.8,0-3s.13-2.56.24-4,.25-2.92.4-4.45.3-3,.46-4.38.31-2.65.47-3.78.3-2,.42-2.68c.45-.27.91-.53,1.38-.76s1-.46,1.46-.67a8,8,0,0,1,1-.32,3,3,0,0,1,1-.08c.36,1.24.77,2.67,1.22,4.28s.95,3.27,1.5,5,1.13,3.41,1.76,5.1a40.94,40.94,0,0,0,2,4.63,8.24,8.24,0,0,1-1.38,1,11.43,11.43,0,0,1-1.67.85,1.48,1.48,0,0,1-.59-.32,2.35,2.35,0,0,1-.5-.66,8.11,8.11,0,0,1-.5-1.14c-.17-.48-.38-1.07-.62-1.77a6.57,6.57,0,0,0-.7.25l-1.17.5-1.31.58-1.12.53a11.51,11.51,0,0,0-.1,2c0,.79.06,1.59.14,2.41a3.21,3.21,0,0,1-.56.31l-.83.35a7.32,7.32,0,0,1-.93.33c-.32.1-.59.17-.81.22a.68.68,0,0,1-.41-.06A.47.47,0,0,1,287.92,166.3Zm4.6-19c-.15,1.75-.29,3.46-.42,5.11s-.21,3.22-.25,4.72c.52-.26,1-.49,1.52-.71s1-.41,1.53-.6c-.15-.49-.33-1.06-.53-1.74s-.41-1.4-.63-2.16-.43-1.54-.64-2.33S292.69,148,292.52,147.26Z"/><path class="cls-15" d="M305.86,154.41c0-.8,0-1.66.09-2.57s.1-1.86.18-2.83.17-1.95.28-2.95.23-2,.36-2.94.3-2.19.5-3.29.42-2.15.66-3.15a11.24,11.24,0,0,1,2-.67,3.79,3.79,0,0,1,1.67-.09q-.45,2.34-.81,4.29c-.24,1.3-.43,2.47-.58,3.49-.19,1.18-.35,2.22-.47,3.13s-.22,1.73-.31,2.47-.15,1.39-.22,2-.12,1.14-.18,1.65c-.12,1.09-.21,2.11-.27,3.07s-.09,1.83-.09,2.61a7.2,7.2,0,0,1-1.62.93c-.64.28-1.28.55-1.92.79a2.89,2.89,0,0,1-.8-1c-.31-.51-.64-1.13-1-1.85s-.72-1.54-1.09-2.44-.72-1.84-1.05-2.81c-.61-1.69-1.19-3.54-1.73-5.57s-1-4-1.35-6.06a12,12,0,0,1,3.64-1.48c0,.25.09.63.19,1.15s.2,1.12.34,1.82.31,1.47.51,2.31.42,1.71.68,2.6c.17.67.37,1.35.58,2l.62,2c.21.65.42,1.25.63,1.83S305.68,154,305.86,154.41Z"/><path class="cls-15" d="M325.21,152.6c-1.55.58-3.13,1.19-4.76,1.84l-4.74,1.9a10.2,10.2,0,0,1-.41-1,6.83,6.83,0,0,1-.27-.91c-.07-.32-.13-.66-.19-1s-.11-.8-.17-1.29q-.36-3.47-.56-6.85t-.28-6.95c-.1-.39-.23-.85-.37-1.37a10.27,10.27,0,0,1-.32-1.49,8.51,8.51,0,0,1,1.07-.71c.49-.29,1-.57,1.67-.87s1.29-.58,2-.87,1.42-.55,2.1-.78,1.32-.41,1.92-.55a7.11,7.11,0,0,1,1.47-.24,7.49,7.49,0,0,1,0,.84c0,.32,0,.65,0,1a9.11,9.11,0,0,1-.08.95,4.81,4.81,0,0,1-.15.66,23.88,23.88,0,0,0-2.8.73,11.1,11.1,0,0,0-2.73,1.28q0,.47,0,1.32c0,.57,0,1.17.06,1.78s.07,1.2.11,1.77.07,1,.1,1.33q.5-.18,1.29-.51c.51-.22,1.05-.44,1.61-.64s1.1-.38,1.62-.53a5.45,5.45,0,0,1,1.27-.23,16.89,16.89,0,0,1,0,1.78,6.35,6.35,0,0,1-.24,1.66,19.43,19.43,0,0,0-2.67.85c-.94.36-1.83.75-2.67,1.16,0,.33.07.7.1,1.1s.06.82.1,1.24.08.82.14,1.22.12.75.19,1.07l1.39-.53,1.76-.65c.6-.22,1.16-.42,1.67-.59s.88-.3,1.09-.35a5.81,5.81,0,0,1,.45,1.58C325.09,151.38,325.16,152,325.21,152.6Z"/><path class="cls-15" d="M331.94,149.84c-.28-1.43-.5-2.85-.65-4.27s-.24-2.85-.31-4.29-.08-2.91-.08-4.4,0-3,0-4.56c-.13-.4-.27-.87-.4-1.39a7,7,0,0,1-.23-1.46,6.8,6.8,0,0,1,1.07-.68q.78-.42,1.8-.87c.67-.3,1.39-.59,2.15-.88s1.5-.54,2.2-.75a12.74,12.74,0,0,1,1.87-.45,2.51,2.51,0,0,1,1.18,0,10.91,10.91,0,0,1-.05,1.69,8.19,8.19,0,0,1-.28,1.51,24.82,24.82,0,0,0-2.73.69,17.22,17.22,0,0,0-2.79,1.16,10.09,10.09,0,0,0,0,1.07v1.73c0,.64,0,1.29,0,1.94s0,1.21.07,1.66c.46-.2,1-.41,1.57-.63s1.14-.43,1.68-.62a14.83,14.83,0,0,1,1.52-.42,2.67,2.67,0,0,1,1.07-.09c0,.55,0,1.13,0,1.76a6.19,6.19,0,0,1-.21,1.62,20.33,20.33,0,0,0-2.75.81c-.89.33-1.81.69-2.75,1.1,0,1,.06,1.76.11,2.38s.11,1.19.19,1.72l.26,1.65c.08.57.17,1.29.27,2.15a4.23,4.23,0,0,1-.94.66,7.47,7.47,0,0,1-1.23.55,2.83,2.83,0,0,1-.91.15A1.29,1.29,0,0,1,331.94,149.84Z"/><path class="cls-15" d="M353.62,143.22c-1.57.51-3.18,1.06-4.83,1.63s-3.26,1.14-4.82,1.69a9.38,9.38,0,0,1-.37-1,9,9,0,0,1-.23-.93c-.06-.32-.11-.66-.15-1s-.08-.8-.1-1.29c-.14-2.32-.24-4.61-.27-6.87s0-4.57,0-6.95c-.08-.4-.18-.86-.31-1.39a11.16,11.16,0,0,1-.25-1.5,8.77,8.77,0,0,1,1.1-.67c.5-.26,1.07-.52,1.7-.79s1.32-.52,2.05-.79,1.44-.48,2.12-.68,1.34-.35,1.94-.47a8,8,0,0,1,1.49-.17,6.23,6.23,0,0,1,0,.83c0,.33-.05.66-.08,1a8.53,8.53,0,0,1-.13.94,3.09,3.09,0,0,1-.17.65,24,24,0,0,0-2.83.61,11.75,11.75,0,0,0-2.79,1.16q0,.47-.06,1.32c0,.57,0,1.17,0,1.78s0,1.2,0,1.78,0,1,0,1.33c.34-.11.78-.26,1.31-.46s1.07-.39,1.64-.57,1.11-.33,1.65-.45a5,5,0,0,1,1.27-.18,15.63,15.63,0,0,1,0,1.78,6.47,6.47,0,0,1-.31,1.65,20.43,20.43,0,0,0-2.71.73c-.95.32-1.86.67-2.71,1,0,.33,0,.7.05,1.11s0,.82,0,1.24.05.82.09,1.22.09.76.15,1.08l1.4-.46,1.8-.58,1.69-.52,1.11-.3a5.8,5.8,0,0,1,.37,1.6C353.55,142,353.6,142.61,353.62,143.22Z"/><path class="cls-15" d="M359.41,141.24a5.07,5.07,0,0,1-.79.44c-.31.14-.65.27-1,.4s-.72.24-1.06.34a6,6,0,0,1-.95.22c-.11-.89-.2-2-.27-3.34s-.11-2.74-.15-4.23-.06-3-.08-4.51,0-2.91,0-4.18,0-2.36.09-3.27a11.57,11.57,0,0,1,.18-1.76,6.49,6.49,0,0,1,.71-.37c.28-.12.57-.24.87-.35s.61-.2.91-.28a5.88,5.88,0,0,1,.82-.16c.35.92.71,1.79,1.07,2.61s.75,1.63,1.15,2.45.83,1.65,1.3,2.51,1,1.79,1.62,2.78c-.06-.69-.1-1.58-.14-2.65s0-2.17,0-3.31,0-2.23.08-3.28.1-1.9.18-2.55a7.16,7.16,0,0,1,1.81-.78c.7-.21,1.32-.37,1.87-.49,0,1.6-.06,3.27-.08,5s0,3.49,0,5.29.07,3.62.15,5.49.19,3.73.36,5.59a7,7,0,0,1-1.17.62,12,12,0,0,1-1.37.5,13,13,0,0,1-1.39-1.5,28.83,28.83,0,0,1-1.79-2.4q-.94-1.38-1.86-3a27.23,27.23,0,0,1-1.56-3.28c0,1.92,0,3.8,0,5.64S359.19,139.21,359.41,141.24Z"/><path class="cls-15" d="M370.29,138.3a49.32,49.32,0,0,1-.22-5c0-1.8,0-3.64.07-5.51s.1-3.72.15-5.54.07-3.52,0-5.1a5.85,5.85,0,0,1,1.37-.69c.52-.18,1.06-.36,1.62-.51a4.62,4.62,0,0,1,.69-.13c.22,0,.33.1.32.36-.14,3.45-.26,6.92-.38,10.39s-.11,7,.05,10.58a3.57,3.57,0,0,1-.76.39c-.31.13-.63.25-1,.37a9.85,9.85,0,0,1-1,.28A6.07,6.07,0,0,1,370.29,138.3Z"/><path class="cls-15" d="M386.38,134a2.62,2.62,0,0,1-.64-.66c-.28-.37-.6-.86-1-1.45s-.74-1.27-1.13-2-.78-1.57-1.15-2.43c-.26.59-.54,1.28-.83,2.08s-.59,1.62-.88,2.44l-.85,2.38c-.28.75-.51,1.39-.71,1.89a8.43,8.43,0,0,1-1.85.29,4.68,4.68,0,0,1-1.51-.14c.15-.62.37-1.37.66-2.26s.62-1.84,1-2.87.77-2.11,1.2-3.24.88-2.25,1.32-3.36c-.39-.78-.77-1.58-1.13-2.43s-.71-1.66-1-2.46-.63-1.56-.89-2.29-.48-1.39-.64-2a6.69,6.69,0,0,1,1.82-1.08,7.12,7.12,0,0,1,2.06-.55c.06.24.17.64.34,1.22s.37,1.21.6,1.89.47,1.37.72,2.06.49,1.28.72,1.76q.82-2.2,1.68-4.34c.57-1.43,1.15-2.78,1.73-4a8,8,0,0,1,1.95-.26,4.82,4.82,0,0,1,1.6.22l-.86,2c-.32.72-.66,1.51-1,2.38s-.77,1.86-1.22,2.94-.93,2.3-1.45,3.66c.29.65.59,1.29.91,1.9s.65,1.28,1,2,.79,1.48,1.26,2.33l1.62,2.9a7.06,7.06,0,0,1-1.57.92A12.1,12.1,0,0,1,386.38,134Z"/><path class="cls-8" d="M395.88,131.18c0-2.94.08-5.93.31-9s.48-6.12.72-9.25c-.13-.36-.22-.66-.28-.89a7.38,7.38,0,0,1-.19-1,6.06,6.06,0,0,1,1-.6c.43-.22.9-.44,1.41-.65s1-.4,1.53-.58a13.64,13.64,0,0,1,1.35-.4,7.59,7.59,0,0,1,3.56-.08,4.18,4.18,0,0,1,2.34,1.6,8,8,0,0,1,1.25,3.24,22,22,0,0,1,.24,4.77,19.22,19.22,0,0,1-.61,4.29,13.87,13.87,0,0,1-1.6,3.73,10.74,10.74,0,0,1-2.69,2.94,11.19,11.19,0,0,1-4,1.85,6.65,6.65,0,0,1-1.21.23,10.54,10.54,0,0,1-1.24.07,9.61,9.61,0,0,1-1.12-.07A2.92,2.92,0,0,1,395.88,131.18Zm3.86-3.72a2.69,2.69,0,0,0,.79-.06,4.28,4.28,0,0,0,2.14-1.16,7.33,7.33,0,0,0,1.4-2.07,11.84,11.84,0,0,0,.8-2.55,15.4,15.4,0,0,0,.28-2.64A21.47,21.47,0,0,0,405,116a6.15,6.15,0,0,0-.66-2.28A2.32,2.32,0,0,0,403,112.6a3.44,3.44,0,0,0-2.33.41q-.33,3.54-.57,7.2C399.93,122.65,399.82,125.07,399.74,127.46Z"/><path class="cls-8" d="M421.36,126.21c-1.62.36-3.27.74-5,1.14l-5,1.19a8.56,8.56,0,0,1-.27-1,5.91,5.91,0,0,1-.13-.94c0-.33,0-.67,0-1s0-.8,0-1.3q.13-3.48.44-6.86c.19-2.24.44-4.55.73-6.91,0-.41-.1-.88-.17-1.42a10.13,10.13,0,0,1-.09-1.52,8.73,8.73,0,0,1,1.16-.55c.52-.21,1.11-.41,1.77-.61s1.37-.39,2.12-.57,1.48-.34,2.18-.47,1.37-.21,2-.26a7.56,7.56,0,0,1,1.49,0,6.15,6.15,0,0,1-.11.83c-.05.32-.11.64-.18,1s-.14.64-.22.93a4.76,4.76,0,0,1-.24.63,22,22,0,0,0-2.88.32,11.36,11.36,0,0,0-2.89.87c-.06.3-.13.73-.19,1.3s-.13,1.16-.2,1.77-.11,1.2-.15,1.77-.08,1-.1,1.33c.36-.07.81-.18,1.35-.32s1.11-.28,1.69-.4,1.14-.21,1.68-.28a5.41,5.41,0,0,1,1.29,0,15.79,15.79,0,0,1-.22,1.77,6.89,6.89,0,0,1-.47,1.61,19,19,0,0,0-2.78.45c-1,.22-1.91.47-2.8.76,0,.33,0,.7-.06,1.1l-.09,1.24c0,.42,0,.82,0,1.22s0,.77,0,1.09l1.45-.31,1.84-.4,1.73-.34,1.13-.19a6.14,6.14,0,0,1,.22,1.64C421.42,125,421.4,125.61,421.36,126.21Z"/><path class="cls-8" d="M433.46,124l-4.1.81c-1.44.28-2.83.56-4.19.86a3.27,3.27,0,0,1-1,.12,1.81,1.81,0,0,1-.65-.28,9.05,9.05,0,0,1-.1-1.59c0-.57,0-1.12.07-1.66.12-1.35.26-2.8.41-4.33s.31-3.07.47-4.6.33-3,.48-4.51.28-2.83.38-4.08c.42-.18.9-.36,1.45-.55a12.53,12.53,0,0,1,1.65-.43,3,3,0,0,1,.71-.06c.22,0,.32.14.31.39-.08,1.23-.2,2.57-.36,4s-.32,3-.5,4.54-.36,3.07-.53,4.58-.3,2.89-.39,4.15c1-.21,2.06-.4,3.1-.59a21.2,21.2,0,0,1,2.78-.32,7,7,0,0,1,.1.8,7.74,7.74,0,0,1,0,1c0,.34,0,.67-.05,1A5.67,5.67,0,0,1,433.46,124Z"/><path class="cls-8" d="M444.26,122a4.69,4.69,0,0,1-.8.34,7,7,0,0,1-1,.28,4.63,4.63,0,0,1-1.05.12,2.84,2.84,0,0,1-1-.13,13.83,13.83,0,0,1-.07-2c0-.82.1-1.85.23-3.09,0-.19,0-.39.06-.61s.05-.5.09-.87.09-.82.17-1.4.19-1.32.32-2.25.29-2,.48-3.38.44-2.93.74-4.81c0-.34-.09-.67-.15-1s-.12-.67-.17-1a14.37,14.37,0,0,1,2.49-1.13,15,15,0,0,1,2.64-.67,10.88,10.88,0,0,1,3-.07,5.3,5.3,0,0,1,2.42.89,4.31,4.31,0,0,1,1.52,2,7.11,7.11,0,0,1,.31,3.28,10.18,10.18,0,0,1-2.73,6,10.38,10.38,0,0,1-2.52,2,9,9,0,0,1-3,1c-.24,0-.49.06-.75.09l-.76,0c-.07.58-.14,1.12-.22,1.63s-.12,1-.16,1.54-.08,1-.11,1.56S444.25,121.37,444.26,122Zm2.09-17.63c-.2,1.32-.36,2.4-.49,3.24s-.24,1.54-.32,2.07-.13.95-.16,1.25-.07.58-.09.82a3,3,0,0,0,.95,0,6.85,6.85,0,0,0,1.58-.45,4.57,4.57,0,0,0,1.33-.87,4.46,4.46,0,0,0,1-1.41,6.56,6.56,0,0,0,.49-2.06,2.75,2.75,0,0,0-.65-2.41,2.79,2.79,0,0,0-2.47-.52A5.7,5.7,0,0,0,446.35,104.34Z"/><path class="cls-8" d="M452.77,120.07c.15-.77.41-1.75.75-2.92s.75-2.45,1.23-3.81,1-2.77,1.48-4.22,1-2.82,1.54-4.12,1-2.49,1.4-3.55.79-1.89,1.07-2.49c.51-.15,1-.29,1.53-.4s1-.2,1.57-.28a7.12,7.12,0,0,1,1-.06,3,3,0,0,1,1,.15c0,1.3.07,2.78.11,4.45s.11,3.4.22,5.2.25,3.58.44,5.38a39.12,39.12,0,0,0,.81,5,7.72,7.72,0,0,1-1.59.64,11.4,11.4,0,0,1-1.83.41A1.41,1.41,0,0,1,463,119a2.59,2.59,0,0,1-.32-.76,9.2,9.2,0,0,1-.2-1.24c-.05-.5-.11-1.12-.17-1.87a6.26,6.26,0,0,0-.73.07l-1.26.19-1.41.25c-.48.08-.88.16-1.22.23a10.67,10.67,0,0,0-.59,1.89c-.18.77-.33,1.56-.47,2.36a2.77,2.77,0,0,1-.61.17l-.9.14c-.32,0-.64.07-1,.08a7.94,7.94,0,0,1-.83,0,.58.58,0,0,1-.39-.16A.41.41,0,0,1,452.77,120.07Zm9.18-17.3c-.58,1.67-1.14,3.28-1.67,4.85s-1,3.07-1.42,4.51c.57-.12,1.12-.22,1.65-.31s1.07-.15,1.63-.21c0-.5-.06-1.11-.08-1.81s-.05-1.46-.07-2.25,0-1.59,0-2.42S461.94,103.53,462,102.77Z"/><path class="cls-8" d="M468.46,118.59c.07-1.55.25-3.22.51-5s.57-3.61.89-5.45.64-3.66,1-5.46.58-3.47.8-5a5.37,5.37,0,0,1,1.45-.49c.54-.1,1.1-.19,1.68-.26a4.15,4.15,0,0,1,.7,0c.22,0,.31.15.26.4q-1,5.1-1.9,10.22T472.31,118a3.61,3.61,0,0,1-.81.28q-.48.12-1,.21a7.67,7.67,0,0,1-1.06.13A5.12,5.12,0,0,1,468.46,118.59Z"/><path class="cls-8" d="M475.21,116.27a11.86,11.86,0,0,1,.6-2,8,8,0,0,1,.92-1.75,3.77,3.77,0,0,0,1.61,1.71,3.71,3.71,0,0,0,2.23.43,4,4,0,0,0,1.77-.6,2,2,0,0,0,.86-1.44,1.54,1.54,0,0,0-.48-1.39,4.87,4.87,0,0,0-1.41-1,17.52,17.52,0,0,0-1.68-.7,5.08,5.08,0,0,1-1.28-.62,4.27,4.27,0,0,1-1.52-1.71,4.58,4.58,0,0,1-.34-2.65,10.2,10.2,0,0,1,.95-3.06A10.58,10.58,0,0,1,479.18,99a11.17,11.17,0,0,1,2.4-2,11.39,11.39,0,0,1,2.92-1.27,7.2,7.2,0,0,1,1.53-.24,6.27,6.27,0,0,1,1.58.11,3.31,3.31,0,0,1,1.32.55,1.88,1.88,0,0,1,.74,1.12,5.81,5.81,0,0,1-.29,2.43,10.23,10.23,0,0,1-1.08,2.37,1.68,1.68,0,0,1-.68.49,9.49,9.49,0,0,1-1.09.44,10.92,10.92,0,0,1-1.18.32,4.94,4.94,0,0,1-.94.13,6.89,6.89,0,0,0,.67-1.36c.21-.54.39-1,.55-1.47s0-.88-.31-1a1.68,1.68,0,0,0-1.17,0,5.32,5.32,0,0,0-1.37.79,5.94,5.94,0,0,0-1,1.08,4.93,4.93,0,0,0-.69,1.24,3.82,3.82,0,0,0-.27,1.29,2.17,2.17,0,0,0,.6,1.65,4.52,4.52,0,0,0,1.7,1.17c.72.27,1.39.55,2,.84a5.57,5.57,0,0,1,1.56,1,3.55,3.55,0,0,1,.9,1.42,4.24,4.24,0,0,1,.14,2,5.66,5.66,0,0,1-.94,2.53,6.18,6.18,0,0,1-1.81,1.72,8.22,8.22,0,0,1-2.32,1,12.77,12.77,0,0,1-2.45.44,7.1,7.1,0,0,1-3.07-.31A4.62,4.62,0,0,1,475.21,116.27Z"/><path class="cls-8" d="M488.37,115.73q.28-1.16.9-2.88c.41-1.16.88-2.41,1.42-3.74s1.12-2.72,1.71-4.13,1.18-2.76,1.75-4,1.1-2.44,1.58-3.47.89-1.84,1.21-2.44c.51-.12,1-.22,1.54-.31s1-.15,1.59-.2a7.08,7.08,0,0,1,1,0,3,3,0,0,1,1,.21c0,1.29-.07,2.78-.12,4.45s-.07,3.4-.06,5.2.06,3.59.16,5.39a39.5,39.5,0,0,0,.55,5,7.83,7.83,0,0,1-1.62.56,11.46,11.46,0,0,1-1.86.31,1.47,1.47,0,0,1-.46-.47,2.61,2.61,0,0,1-.28-.78,7.76,7.76,0,0,1-.13-1.25c0-.5-.05-1.13-.07-1.87a5.69,5.69,0,0,0-.74,0l-1.26.12-1.43.17-1.23.16a11.72,11.72,0,0,0-.69,1.87c-.22.75-.41,1.53-.58,2.33a2.82,2.82,0,0,1-.63.13c-.28,0-.58.07-.9.09s-.65,0-1,0-.61,0-.84,0a.71.71,0,0,1-.38-.18A.44.44,0,0,1,488.37,115.73Zm10.08-16.8c-.67,1.64-1.31,3.22-1.93,4.76s-1.17,3-1.65,4.42c.58-.08,1.13-.16,1.66-.21s1.08-.1,1.64-.13c0-.5,0-1.11,0-1.82s0-1.45.05-2.24.06-1.6.09-2.42S498.39,99.69,498.45,98.93Z"/><path class="cls-8" d="M508.8,112.19a2,2,0,0,0,1.55-.91,7.94,7.94,0,0,0,1.07-2.12,20.53,20.53,0,0,0,.72-2.68c.19-1,.35-1.79.49-2.53.33-1.71.59-3.41.79-5.08s.44-3.3.75-4.85a4.52,4.52,0,0,1,2.2-.56,4.18,4.18,0,0,1,1.14.06,1.81,1.81,0,0,1,.86.44,16.45,16.45,0,0,0-.54,2.22c-.17.91-.35,1.93-.55,3l-.6,3.5c-.22,1.23-.45,2.42-.71,3.57s-.56,2.24-.89,3.25a12,12,0,0,1-1.17,2.56,6.51,6.51,0,0,1-2.46,2.35,6.89,6.89,0,0,1-3,.87,6,6,0,0,1-1.81-.17,4.21,4.21,0,0,1-1.34-.58,3.39,3.39,0,0,1-.89-.88,3.16,3.16,0,0,1-.45-1,4.23,4.23,0,0,1,.3-.93c.15-.37.33-.76.53-1.15a11.52,11.52,0,0,1,.61-1.11,6.4,6.4,0,0,1,.56-.81,7.41,7.41,0,0,0,1,2.59A2,2,0,0,0,508.8,112.19Z"/><path class="cls-8" d="M527.42,113.84c-1.64.09-3.34.21-5.09.34s-3.44.26-5.09.4c-.06-.38-.09-.73-.11-1s0-.63,0-1,.06-.67.12-1,.13-.8.23-1.28q.69-3.42,1.5-6.71c.54-2.19,1.15-4.43,1.81-6.71,0-.41,0-.88.05-1.43a11.42,11.42,0,0,1,.14-1.51,7.23,7.23,0,0,1,1.24-.36,18.66,18.66,0,0,1,1.84-.33c.69-.09,1.41-.17,2.18-.24s1.52-.1,2.24-.11,1.37,0,2,0a7,7,0,0,1,1.48.22,7.3,7.3,0,0,1-.24.8c-.1.3-.22.62-.33.93s-.24.61-.37.88a4.45,4.45,0,0,1-.33.59,23.27,23.27,0,0,0-2.9-.14,11.37,11.37,0,0,0-3,.41q-.15.44-.39,1.26c-.16.55-.31,1.12-.47,1.71s-.3,1.17-.43,1.73l-.3,1.3,1.38-.11c.56-.06,1.14-.1,1.73-.13s1.17,0,1.71,0a5.08,5.08,0,0,1,1.28.15,14.38,14.38,0,0,1-.5,1.71,6.76,6.76,0,0,1-.71,1.52,21.93,21.93,0,0,0-2.81,0c-1,.07-2,.18-2.89.32-.06.33-.15.69-.24,1.08l-.27,1.21c-.09.41-.17.81-.24,1.21s-.1.75-.13,1.07l1.48-.08,1.88-.1,1.77-.07h1.15a6.24,6.24,0,0,1,0,1.65C527.67,112.64,527.56,113.25,527.42,113.84Z"/><path class="cls-8" d="M538.44,113.38a6.33,6.33,0,0,1-.84.22,6.47,6.47,0,0,1-1,.14,5.38,5.38,0,0,1-1.06,0,2.84,2.84,0,0,1-.95-.27,13.75,13.75,0,0,1,.22-2c.13-.81.35-1.82.65-3,0-.18.08-.38.14-.59s.13-.5.21-.85.21-.81.37-1.37.37-1.28.62-2.18.57-2,1-3.28.84-2.84,1.39-4.66c0-.34,0-.68,0-1s0-.67,0-1a14.51,14.51,0,0,1,2.63-.78,16.75,16.75,0,0,1,2.7-.29,10.29,10.29,0,0,1,2.93.34,5.32,5.32,0,0,1,2.28,1.21,4.3,4.3,0,0,1,1.23,2.2,7,7,0,0,1-.15,3.29,10.3,10.3,0,0,1-1.34,3.15,10,10,0,0,1-2.19,2.42,10.45,10.45,0,0,1-2.77,1.58,9,9,0,0,1-3.06.6c-.25,0-.5,0-.76,0s-.51,0-.76-.08c-.15.57-.29,1.1-.43,1.59s-.27,1-.38,1.51-.22,1-.32,1.53S538.51,112.77,538.44,113.38ZM543,96.2c-.38,1.28-.69,2.33-.94,3.15s-.44,1.48-.59,2-.27.92-.34,1.21-.14.56-.2.81a3,3,0,0,0,.94.13,7.36,7.36,0,0,0,1.63-.22,4.71,4.71,0,0,0,1.43-.68,4.43,4.43,0,0,0,1.16-1.26,6.44,6.44,0,0,0,.77-2,2.74,2.74,0,0,0-.31-2.47,2.82,2.82,0,0,0-2.37-.86A5.86,5.86,0,0,0,543,96.2Z"/><path class="cls-8" d="M561.4,113.21a3.22,3.22,0,0,1-.94.2,11.12,11.12,0,0,1-1.16.06,9.06,9.06,0,0,1-1.09-.06,1.73,1.73,0,0,1-.68-.18,6.33,6.33,0,0,1,.22-.85,5,5,0,0,0,.18-.78,5.12,5.12,0,0,1-1.75,1.47,5.33,5.33,0,0,1-2.21.66,4.64,4.64,0,0,1-2.14-.31,2.55,2.55,0,0,1-1.22-1,3.49,3.49,0,0,1-.48-1.55,8.3,8.3,0,0,1,.07-1.91,17.09,17.09,0,0,1,.41-2.09c.18-.73.37-1.43.58-2.11.28-1,.61-2.07,1-3.12s.73-2.11,1.1-3.16.71-2.06,1-3,.6-1.92.82-2.81l1-.06,1.13,0c.37,0,.72,0,1,0l.79.06c-.39,1.37-.8,2.69-1.25,4s-.89,2.52-1.32,3.76-.84,2.47-1.21,3.71a34,34,0,0,0-.88,3.78,2.52,2.52,0,0,0,.16,1.8,1.22,1.22,0,0,0,1,.61,2.89,2.89,0,0,0,1.51-.5,6,6,0,0,0,1.6-1.47c.23-.67.49-1.44.78-2.32s.62-1.94,1-3.17.76-2.64,1.19-4.22.88-3.42,1.37-5.49a7.74,7.74,0,0,1,1-.14l1.16-.07a6.15,6.15,0,0,1,1,0l.88.11q-.79,2.9-1.63,5.7l-1.62,5.4c-.52,1.73-1,3.36-1.43,4.91S561.66,111.92,561.4,113.21Z"/><path class="cls-8" d="M568,113.28a5.2,5.2,0,0,1-.88.18c-.34,0-.7.06-1.09.07s-.75,0-1.11,0a6.55,6.55,0,0,1-1-.09c.17-.88.42-2,.76-3.25s.73-2.65,1.15-4.08.85-2.87,1.3-4.32.87-2.78,1.27-4,.77-2.24,1.09-3.09a11.19,11.19,0,0,1,.71-1.63c.22,0,.48-.09.78-.13s.62,0,.94-.06h.95a6.09,6.09,0,0,1,.83.1c.06,1,.13,1.93.23,2.81s.21,1.79.34,2.69.29,1.83.48,2.78.42,2,.69,3.15c.16-.68.39-1.54.68-2.57s.63-2.08,1-3.16.71-2.11,1.07-3.1.67-1.78.95-2.38a7.58,7.58,0,0,1,2-.19c.72,0,1.36.06,1.93.11-.52,1.52-1.06,3.1-1.6,4.73s-1.08,3.32-1.6,5-1,3.47-1.54,5.27-1,3.61-1.36,5.43a6.17,6.17,0,0,1-1.3.24,12.13,12.13,0,0,1-1.45.06,13.19,13.19,0,0,1-.88-1.85c-.33-.83-.65-1.77-1-2.83s-.6-2.21-.85-3.42a25.37,25.37,0,0,1-.48-3.61q-.94,2.73-1.68,5.4T568,113.28Z"/><path class="cls-8" d="M596.12,97.23c-.56,0-1.22-.07-2-.13A19.74,19.74,0,0,0,592,97q-1.59,4.38-2.85,8.52t-2.36,8.38a4.49,4.49,0,0,1-1,.22,8.72,8.72,0,0,1-1.14.07,8.47,8.47,0,0,1-1.13-.06,9.18,9.18,0,0,1-1-.18c.37-1.48.8-3,1.28-4.48s1-3,1.48-4.48,1-2.91,1.45-4.28.87-2.67,1.23-3.86c-.64,0-1.25,0-1.82,0s-1.25,0-2,0a4.13,4.13,0,0,1,.21-.77c.1-.3.21-.62.34-.95l.39-1,.34-.75c.61,0,1.41,0,2.42,0s2.06,0,3.17.07,2.19.1,3.27.18,2,.16,2.72.26c-.06.42-.18,1-.34,1.6S596.31,96.72,596.12,97.23Z"/><path class="cls-8" d="M635.9,97.44a5.2,5.2,0,0,1,2.71,1,4.31,4.31,0,0,1,1.46,2.12,7.23,7.23,0,0,1,.21,3,15.44,15.44,0,0,1-1,3.73,25.19,25.19,0,0,1-2.15,4.28,17.59,17.59,0,0,1-2.86,3.47,11.28,11.28,0,0,1-3.42,2.22,7.71,7.71,0,0,1-3.86.54,5,5,0,0,1-2.95-1.18,4.72,4.72,0,0,1-1.36-2.46,8.71,8.71,0,0,1,0-3.31,19,19,0,0,1,1-3.76,21.71,21.71,0,0,1,2.12-4.16,17,17,0,0,1,2.83-3.35A11.83,11.83,0,0,1,632,97.42a7.64,7.64,0,0,1,3.72-.58A1.41,1.41,0,0,1,635.9,97.44ZM634.32,101a3.34,3.34,0,0,0-1.89.62,8.62,8.62,0,0,0-1.8,1.61,15.5,15.5,0,0,0-1.56,2.21,18.4,18.4,0,0,0-1.17,2.42,18.71,18.71,0,0,0-.78,2.47,7.12,7.12,0,0,0-.24,2,2.62,2.62,0,0,0,.44,1.44,1.69,1.69,0,0,0,1.23.68,2.65,2.65,0,0,0,1.76-.47,7.48,7.48,0,0,0,1.74-1.59,16.27,16.27,0,0,0,1.6-2.39,25.21,25.21,0,0,0,1.35-2.92,11.57,11.57,0,0,0,1-4.3A1.74,1.74,0,0,0,634.32,101Z"/><polygon class="cls-8" points="455.4 32.77 453.47 32.77 452.64 38.29 454.71 37.66 455.4 32.77"/><path class="cls-15" d="M459.34,28.84a4.54,4.54,0,1,1-8.22-2.9c1.32-1.81,4.31-3.54,5.37-5.52l.55-1,.55,1.36c.76,1.88-.09,3.66,1,5.36A4.45,4.45,0,0,1,459.34,28.84Z"/><polygon class="cls-8" points="526.34 23.96 524.42 23.83 523.2 29.27 525.31 28.78 526.34 23.96"/><path class="cls-15" d="M530.55,20.31a4.54,4.54,0,1,1-9-1.12,4.49,4.49,0,0,1,1-2.34c1.43-1.72,4.54-3.24,5.73-5.13l.62-1,.46,1.4c.63,1.93-.35,3.64.64,5.41A4.5,4.5,0,0,1,530.55,20.31Z"/><text class="cls-16" transform="translate(589.96 114.4) rotate(3)"><tspan class="cls-17">A</tspan><tspan x="14.2" y="0">N</tspan></text></g></g></svg>