<svg xmlns="http://www.w3.org/2000/svg" viewBox="0 0 427.21 169.33"><defs><style>.cls-1{fill:#0b1e2c;}.cls-2,.cls-4{fill:#d72828;}.cls-3,.cls-5{fill:#0c3148;}.cls-4{stroke:#fcc009;stroke-miterlimit:10;}.cls-5{font-size:28px;font-family:AmericanPurposeCasual02, "American Purpose Casual 02";}.cls-6{letter-spacing:-0.01em;}</style></defs><title>logotipo</title><g id="Capa_2" data-name="Capa 2"><g id="Capa_2-2" data-name="Capa 2"><path class="cls-1" d="M40.28,122.54q-6.72,3.19-13.77,6.69t-13.7,6.84a29.38,29.38,0,0,1-1.47-2.76,25,25,0,0,1-1-2.67c-.29-.93-.57-1.93-.83-3s-.53-2.35-.81-3.81q-1.94-10.27-3.36-20.33T2.76,82.78c-.39-1.15-.88-2.49-1.44-4A32,32,0,0,1,0,74.38,25.37,25.37,0,0,1,3,72c1.39-1,3-2,4.76-3s3.72-2.06,5.8-3.11,4.09-2,6.07-2.84,3.84-1.55,5.6-2.12a22.74,22.74,0,0,1,4.35-1.06,23.19,23.19,0,0,1,.24,2.48c0,1,.09,2,.13,3s0,2,0,2.86a10.88,10.88,0,0,1-.26,2,66.75,66.75,0,0,0-8.2,2.87,33.44,33.44,0,0,0-7.85,4.5c0,.92.13,2.23.32,3.94s.4,3.47.63,5.29.49,3.58.74,5.29.46,3,.63,4c1-.46,2.22-1.08,3.72-1.87s3.06-1.55,4.68-2.3,3.19-1.4,4.72-2a16.19,16.19,0,0,1,3.72-1,46.55,46.55,0,0,1,.56,5.32,20.42,20.42,0,0,1-.29,5,62.09,62.09,0,0,0-7.8,3.19q-4.08,2-7.68,4.12c.19,1,.38,2.07.57,3.28s.38,2.44.58,3.67.44,2.44.72,3.61.55,2.22.85,3.15l4-1.9q2.54-1.22,5.12-2.4t4.84-2.17c1.49-.66,2.55-1.09,3.18-1.32a18.23,18.23,0,0,1,1.73,4.64Q39.84,119.85,40.28,122.54Z"/><path class="cls-1" d="M74.18,109.22c-3.69,1.52-7.56,3.11-11.61,4.74s-8,3.29-11.83,4.93a9,9,0,0,1-2.81.91,5.53,5.53,0,0,1-2.08-.44,31.07,31.07,0,0,1-1.2-4.64c-.3-1.66-.54-3.3-.73-4.92q-.64-6.08-1.29-13T41.4,83q-.6-6.93-1.18-13.56T39,57.22c1.13-.77,2.45-1.59,4-2.44a35.55,35.55,0,0,1,4.62-2.22A9.64,9.64,0,0,1,49.62,52c.64-.09,1,.23,1.12,1q.7,5.47,1.28,12.11t1.11,13.63q.52,7,1.08,13.8T55.44,105q4.35-1.82,8.78-3.53a62.46,62.46,0,0,1,8-2.53c.24.62.5,1.38.76,2.28a26.12,26.12,0,0,1,.64,2.86c.17,1,.31,2,.42,2.9A15.75,15.75,0,0,1,74.18,109.22Z"/><path class="cls-1" d="M123.28,93q-7.07,2.3-14.52,4.86t-14.46,5A26.68,26.68,0,0,1,93.2,100a22.57,22.57,0,0,1-.68-2.78c-.17-1-.32-2-.44-3.09s-.23-2.4-.31-3.89q-.6-10.42-.74-20.59t.13-20.86c-.24-1.19-.55-2.58-.92-4.18a31.77,31.77,0,0,1-.74-4.51,25.18,25.18,0,0,1,3.32-2c1.49-.78,3.19-1.57,5.1-2.35s4-1.57,6.14-2.35,4.32-1.45,6.39-2,4-1.05,5.82-1.39a22.58,22.58,0,0,1,4.45-.49,20.18,20.18,0,0,1-.07,2.49c-.08,1-.16,2-.26,3s-.23,2-.4,2.83a11.09,11.09,0,0,1-.52,2,69.32,69.32,0,0,0-8.5,1.79A33.42,33.42,0,0,0,102.61,45c-.09.91-.16,2.23-.19,3.94s0,3.5,0,5.33,0,3.62.06,5.34.07,3.06.11,4c1-.32,2.34-.78,3.93-1.37s3.23-1.15,4.93-1.68,3.35-1,4.94-1.35a16.38,16.38,0,0,1,3.82-.53A45.11,45.11,0,0,1,120,64,19.67,19.67,0,0,1,119.1,69,62.88,62.88,0,0,0,111,71.13q-4.29,1.43-8.13,3.11c.05,1,.1,2.1.14,3.32s.06,2.46.11,3.71.12,2.47.24,3.67.27,2.28.44,3.23c1-.32,2.45-.78,4.22-1.36s3.58-1.17,5.39-1.73,3.51-1.08,5.07-1.54,2.67-.75,3.33-.89a18.19,18.19,0,0,1,1.12,4.82C123.09,89.33,123.21,91.18,123.28,93Z"/><path class="cls-1" d="M127.21,87.1a33.66,33.66,0,0,1,.93-6.16,25.46,25.46,0,0,1,2-5.59,11.53,11.53,0,0,0,5.5,4.41,11.18,11.18,0,0,0,6.8.34,11.44,11.44,0,0,0,5-2.52,6,6,0,0,0,2-4.65,4.8,4.8,0,0,0-2-3.92,15.43,15.43,0,0,0-4.58-2.26,53.67,53.67,0,0,0-5.3-1.38,15,15,0,0,1-4.06-1.31,12.74,12.74,0,0,1-5.22-4.43,13.68,13.68,0,0,1-2.13-7.73,31.44,31.44,0,0,1,1.54-9.49,32.34,32.34,0,0,1,4.1-8.36,33.37,33.37,0,0,1,6.31-6.87,35,35,0,0,1,8.13-5,22.08,22.08,0,0,1,4.47-1.36,19.19,19.19,0,0,1,4.72-.34,10.26,10.26,0,0,1,4.16,1.1,5.55,5.55,0,0,1,2.67,3,17.79,17.79,0,0,1,.16,7.34,31.14,31.14,0,0,1-2.23,7.47,5.18,5.18,0,0,1-1.8,1.75,28.76,28.76,0,0,1-3.06,1.76,35.64,35.64,0,0,1-3.37,1.45,15,15,0,0,1-2.75.78,21.4,21.4,0,0,0,1.44-4.32c.38-1.69.71-3.22,1-4.6.15-1.65-.3-2.61-1.33-2.89a5,5,0,0,0-3.46.55,15.79,15.79,0,0,0-3.76,2.9,17.73,17.73,0,0,0-2.67,3.66,15.9,15.9,0,0,0-1.52,4,11.8,11.8,0,0,0-.27,3.94A6.62,6.62,0,0,0,141.06,53a13.82,13.82,0,0,0,5.55,2.77c2.24.49,4.34,1,6.3,1.63a17.11,17.11,0,0,1,5,2.43,10.55,10.55,0,0,1,3.3,3.84,13.27,13.27,0,0,1,1.24,5.85,17.13,17.13,0,0,1-1.75,7.91,19,19,0,0,1-4.64,5.88,25.44,25.44,0,0,1-6.46,4,39.53,39.53,0,0,1-7.12,2.35,21.45,21.45,0,0,1-9.24.36A13.56,13.56,0,0,1,127.21,87.1Z"/><path class="cls-1" d="M179,79.33a20.68,20.68,0,0,1-2.37,1.09,24.34,24.34,0,0,1-2.92.91,16.51,16.51,0,0,1-3.14.45,9.1,9.1,0,0,1-3-.32,42.82,42.82,0,0,1-.36-6.11q0-3.67.43-9.29c0-.56.05-1.16.12-1.82s.12-1.53.2-2.62.21-2.49.41-4.22.45-4,.76-6.78.7-6.18,1.18-10.17,1.09-8.81,1.81-14.48c-.13-1-.31-2-.52-3s-.42-2-.6-2.93a42.9,42.9,0,0,1,7.4-3.59,45.89,45.89,0,0,1,7.83-2.2,31.49,31.49,0,0,1,8.85-.46,15.73,15.73,0,0,1,7.32,2.46,12.81,12.81,0,0,1,4.74,5.88,21.12,21.12,0,0,1,1.19,9.82,30.54,30.54,0,0,1-7.69,18.25,30.82,30.82,0,0,1-7.39,6,27.08,27.08,0,0,1-8.78,3.31c-.71.13-1.46.24-2.24.32A22.74,22.74,0,0,1,180,60c-.16,1.75-.33,3.39-.51,4.93s-.3,3.08-.37,4.63-.14,3.11-.19,4.69S178.94,77.5,179,79.33Zm4.82-53c-.48,4-.89,7.22-1.21,9.77s-.58,4.62-.77,6.22-.33,2.85-.4,3.76-.14,1.73-.19,2.47a8.81,8.81,0,0,0,2.85-.07,20.42,20.42,0,0,0,4.7-1.47,13.63,13.63,0,0,0,3.91-2.71,13.11,13.11,0,0,0,2.79-4.3,19.68,19.68,0,0,0,1.32-6.24c.25-3.24-.47-5.63-2.16-7.15s-4.18-2-7.45-1.37A16.69,16.69,0,0,0,183.86,26.28Z"/><path class="cls-1" d="M210.07,74.27a95.84,95.84,0,0,1,1-10.68q.85-5.73,1.88-11.65T215,40.28q1-5.74,1.68-10.77a14.23,14.23,0,0,1,3.41-1.08c1.28-.25,2.61-.45,4-.63a10.22,10.22,0,0,1,1.65-.07c.53,0,.74.29.63.83q-2.07,10.92-4.08,21.86t-3.14,22.39a10.39,10.39,0,0,1-1.89.63c-.76.18-1.57.34-2.41.49a24.26,24.26,0,0,1-2.51.32A15.8,15.8,0,0,1,210.07,74.27Z"/><path class="cls-1" d="M241.5,69.78a14.83,14.83,0,0,1-2.56.83c-1,.24-2.08.45-3.22.61s-2.24.3-3.32.39a21.22,21.22,0,0,1-2.91.09q.27-4,1.14-10t2-12.55q1.13-6.6,2.38-13.31t2.42-12.32c.78-3.74,1.51-6.92,2.18-9.56a35.69,35.69,0,0,1,1.54-5.1,17.7,17.7,0,0,1,2.3-.66c.89-.2,1.82-.38,2.77-.53s1.9-.24,2.84-.3a17.33,17.33,0,0,1,2.5,0q.76,4.38,1.66,8.3c.6,2.62,1.25,5.24,1.95,7.88s1.48,5.35,2.37,8.15,1.95,5.84,3.15,9.12q.36-3.12,1.15-7.88t1.84-9.76q1.05-5,2.13-9.61t2-7.41a22.15,22.15,0,0,1,5.79-1.25c2.17-.2,4.1-.31,5.79-.35q-1.54,7-3.12,14.65t-3,15.56q-1.46,8-2.75,16.25t-2.17,16.66a19.52,19.52,0,0,1-3.8,1.16,36.8,36.8,0,0,1-4.31.67A39.75,39.75,0,0,1,257,64.33q-1.9-3.51-3.87-8.1t-3.72-9.9a74.49,74.49,0,0,1-2.69-10.57q-1.87,8.45-3.12,16.65T241.5,69.78Z"/><path class="cls-1" d="M274.76,67.84A109.47,109.47,0,0,1,277,56.32q1.55-6.15,3.3-12.48t3.49-12.49q1.73-6.15,3-11.55a14.49,14.49,0,0,1,3.73-.85c1.39-.15,2.81-.26,4.28-.32a11.31,11.31,0,0,1,1.76.07c.55.08.75.4.57,1q-3.4,11.68-6.78,23.39t-5.84,24a10.13,10.13,0,0,1-2.06.51c-.83.12-1.7.23-2.61.31s-1.81.12-2.7.11A15.58,15.58,0,0,1,274.76,67.84Z"/><path class="cls-1" d="M324.69,67.21q-6,.11-12.54.17t-12.82.26a9.05,9.05,0,0,1-2.94-.17,5.68,5.68,0,0,1-1.77-1.17,29.66,29.66,0,0,1,.58-4.76c.32-1.66.7-3.27,1.11-4.84q1.62-5.89,3.55-12.56t3.9-13.32q2-6.66,3.86-13t3.31-11.83c1.33-.3,2.85-.58,4.58-.83a36.82,36.82,0,0,1,5.11-.37,8.82,8.82,0,0,1,2.13.22c.63.15.86.58.68,1.31Q322.1,11.61,320.2,18t-3.94,13.1c-1.38,4.47-2.73,8.89-4,13.23s-2.45,8.38-3.41,12.06q4.71-.11,9.46-.07a61.8,61.8,0,0,1,8.38.56,22.31,22.31,0,0,1-.13,2.4,23.71,23.71,0,0,1-.44,2.9c-.21,1-.43,1.95-.67,2.86A15.2,15.2,0,0,1,324.69,67.21Z"/><path class="cls-1" d="M360.28,68.87q-6-.2-12.53-.47T334.94,68a9.43,9.43,0,0,1-2.93-.32,5.73,5.73,0,0,1-1.71-1.27,30.6,30.6,0,0,1,.82-4.72c.42-1.63.87-3.23,1.37-4.78q1.92-5.8,4.19-12.35t4.59-13.1l4.53-12.84c1.47-4.19,2.78-8.06,3.92-11.64,1.35-.23,2.88-.43,4.61-.59a38.35,38.35,0,0,1,5.13-.11,9.33,9.33,0,0,1,2.11.33c.63.18.83.63.62,1.35q-1.62,5.27-3.84,11.55t-4.61,12.88q-2.42,6.59-4.72,13t-4,11.87q4.69.14,9.45.41a61.56,61.56,0,0,1,8.34,1c0,.66-.12,1.46-.25,2.39a26.74,26.74,0,0,1-.6,2.87c-.26,1-.53,1.93-.82,2.82A14.2,14.2,0,0,1,360.28,68.87Z"/><path class="cls-1" d="M407.39,10.93a15.73,15.73,0,0,1,8.16,3,12.93,12.93,0,0,1,4.38,6.34,21.29,21.29,0,0,1,.68,9.08,47.48,47.48,0,0,1-2.86,11.22,75.15,75.15,0,0,1-6.41,12.85,52.1,52.1,0,0,1-8.52,10.44,34.4,34.4,0,0,1-10.27,6.7A23.47,23.47,0,0,1,381,72.16q-5.76-.61-8.87-3.53a14.06,14.06,0,0,1-4.1-7.35,26.74,26.74,0,0,1-.13-9.94,57.5,57.5,0,0,1,3-11.3,64.45,64.45,0,0,1,6.33-12.48,51.51,51.51,0,0,1,8.44-10.09,35.54,35.54,0,0,1,10-6.55,22.91,22.91,0,0,1,11.16-1.78A4,4,0,0,1,407.39,10.93Zm-4.68,10.7a10,10,0,0,0-5.66,1.87,25.71,25.71,0,0,0-5.38,4.85A42.26,42.26,0,0,0,387,35a52.42,52.42,0,0,0-3.51,7.28,58.48,58.48,0,0,0-2.32,7.41,22,22,0,0,0-.69,6.12,7.93,7.93,0,0,0,1.31,4.32,5.21,5.21,0,0,0,3.71,2,8.12,8.12,0,0,0,5.29-1.45,22.86,22.86,0,0,0,5.2-4.78,46.45,46.45,0,0,0,4.76-7.19,71,71,0,0,0,4-8.77q3.14-8.14,3-12.9C407.61,23.91,405.94,22.1,402.71,21.63Z"/><path class="cls-2" d="M416.83,75.91a9.41,9.41,0,0,1-2.43-.33,3.87,3.87,0,0,1-2-1.23,3.83,3.83,0,0,1-.87-2.34,7.05,7.05,0,0,1,1-3.56,8.29,8.29,0,0,1,4.44-4.07,10.68,10.68,0,0,1,5.56-.69,5.29,5.29,0,0,1,4.22,2.63,5.94,5.94,0,0,1-.21,5.15,17.27,17.27,0,0,1-1.64,2.82,19.83,19.83,0,0,1-2.68,3.06,24.38,24.38,0,0,1-3.9,3,28.08,28.08,0,0,1-5.3,2.52c-1.13-.18-1.78-.56-1.93-1.13a31.73,31.73,0,0,0,3.5-2.43A6.29,6.29,0,0,0,416.83,75.91Z"/><path class="cls-3" d="M39.26,164.79Q37,165.86,34.68,167t-4.57,2.3c-.19-.33-.36-.64-.49-.92a8.61,8.61,0,0,1-.34-.89c-.1-.31-.2-.64-.28-1s-.18-.78-.27-1.27c-.44-2.29-.82-4.54-1.15-6.78s-.61-4.53-.87-6.9c-.13-.38-.29-.83-.48-1.33a11.38,11.38,0,0,1-.45-1.46,8.63,8.63,0,0,1,1-.8,17.77,17.77,0,0,1,1.59-1c.59-.35,1.23-.69,1.92-1s1.37-.67,2-1,1.27-.52,1.86-.71a7,7,0,0,1,1.45-.36,5.84,5.84,0,0,1,.08.83c0,.32,0,.65.05,1s0,.66,0,1a4,4,0,0,1-.09.68,22.67,22.67,0,0,0-2.73,1,11.38,11.38,0,0,0-2.61,1.51c0,.31.05.74.11,1.31s.14,1.16.22,1.77.16,1.19.25,1.76l.21,1.32c.33-.16.74-.36,1.24-.63s1-.52,1.56-.77,1.06-.47,1.57-.66a5.22,5.22,0,0,1,1.24-.34,14.56,14.56,0,0,1,.19,1.77,7.15,7.15,0,0,1-.09,1.67,22.42,22.42,0,0,0-2.6,1.07c-.9.44-1.75.91-2.55,1.39.06.32.12.69.19,1.09s.13.81.2,1.22.15.81.24,1.2.19.74.29,1.05l1.33-.63c.56-.28,1.13-.54,1.71-.81l1.6-.73c.5-.22.86-.37,1.07-.44a6.53,6.53,0,0,1,.58,1.54C39,163.59,39.16,164.19,39.26,164.79Z"/><path class="cls-3" d="M50.57,159.85l-3.8,1.73c-1.33.6-2.63,1.2-3.88,1.79a2.77,2.77,0,0,1-.92.34,1.67,1.67,0,0,1-.7-.12,9.87,9.87,0,0,1-.46-1.53c-.12-.55-.22-1.09-.31-1.63-.19-1.34-.39-2.77-.59-4.3s-.4-3.06-.59-4.59-.38-3-.57-4.5-.38-2.82-.57-4.06a15.15,15.15,0,0,1,1.29-.86,11.5,11.5,0,0,1,1.51-.8,2.82,2.82,0,0,1,.68-.22c.21,0,.34.06.38.31.2,1.21.4,2.55.58,4s.37,3,.55,4.52.36,3.08.54,4.58.37,2.89.57,4.14q1.42-.66,2.88-1.29a21,21,0,0,1,2.63-.95,7.6,7.6,0,0,1,.28.75c.1.3.18.62.26.95s.12.65.17,1A3.87,3.87,0,0,1,50.57,159.85Z"/><path class="cls-4" d="M55.92,156.74c0-.79,0-1.8,0-3s.12-2.56.23-4,.25-2.92.4-4.45.3-3,.46-4.38.32-2.65.47-3.78.3-2,.42-2.68c.45-.28.92-.53,1.38-.77s1-.45,1.46-.66a8,8,0,0,1,1-.32,3.32,3.32,0,0,1,1-.09c.35,1.25.76,2.68,1.21,4.29s1,3.26,1.5,5,1.14,3.42,1.76,5.1a42.17,42.17,0,0,0,2,4.64,8.24,8.24,0,0,1-1.38,1,11.43,11.43,0,0,1-1.67.85,1.48,1.48,0,0,1-.59-.32,2.51,2.51,0,0,1-.5-.66,7.8,7.8,0,0,1-.5-1.15c-.17-.47-.38-1.06-.62-1.76a6.57,6.57,0,0,0-.7.25l-1.17.5-1.31.58-1.12.53a11.51,11.51,0,0,0-.1,2c0,.79.06,1.59.14,2.4a2.27,2.27,0,0,1-.56.31l-.83.36q-.45.18-.93.33c-.32.1-.59.17-.81.22a.68.68,0,0,1-.41-.06A.47.47,0,0,1,55.92,156.74Zm4.6-19.05c-.15,1.76-.29,3.47-.42,5.12s-.21,3.22-.25,4.72c.52-.26,1-.5,1.52-.71s1-.41,1.53-.61c-.15-.48-.33-1.06-.53-1.74s-.41-1.39-.63-2.15-.43-1.54-.64-2.33S60.69,138.43,60.52,137.69Z"/><path class="cls-4" d="M73.86,144.85q0-1.2.09-2.58t.18-2.82c.08-1,.17-1.95.28-3s.23-2,.36-2.93.3-2.19.5-3.29.42-2.15.66-3.15a10,10,0,0,1,2-.67,4,4,0,0,1,1.67-.1c-.3,1.57-.57,3-.81,4.3s-.43,2.46-.57,3.49c-.2,1.18-.35,2.22-.48,3.13s-.22,1.73-.3,2.46-.16,1.4-.23,2-.12,1.14-.18,1.66c-.12,1.08-.21,2.11-.27,3.07s-.09,1.83-.09,2.6A6.85,6.85,0,0,1,75,150c-.64.28-1.28.55-1.92.79a3,3,0,0,1-.8-1c-.31-.51-.64-1.13-1-1.85s-.73-1.54-1.1-2.45-.72-1.83-1-2.81c-.61-1.68-1.19-3.54-1.73-5.56s-1-4-1.35-6.07a11.67,11.67,0,0,1,3.64-1.47c0,.25.09.63.19,1.15s.2,1.12.34,1.82.32,1.47.51,2.31.42,1.71.68,2.6c.17.67.37,1.35.58,2l.62,2q.31,1,.63,1.83C73.49,143.89,73.68,144.4,73.86,144.85Z"/><path class="cls-4" d="M93.21,143c-1.54.59-3.13,1.2-4.76,1.85s-3.21,1.28-4.73,1.9q-.25-.53-.42-1a6.83,6.83,0,0,1-.27-.91c-.07-.32-.13-.66-.19-1s-.11-.8-.17-1.29c-.24-2.31-.42-4.6-.56-6.85s-.23-4.57-.28-6.95c-.1-.39-.22-.85-.37-1.37a10.27,10.27,0,0,1-.32-1.49,8.36,8.36,0,0,1,1.07-.72c.49-.28,1-.57,1.67-.86s1.29-.58,2-.87,1.41-.56,2.09-.78,1.32-.41,1.92-.56a7.72,7.72,0,0,1,1.47-.23,7.35,7.35,0,0,1,0,.83c0,.33,0,.66,0,1s0,.65-.09,1a3.67,3.67,0,0,1-.15.66,23.88,23.88,0,0,0-2.8.73,11.46,11.46,0,0,0-2.73,1.28q0,.47,0,1.32c0,.57,0,1.16.07,1.77s.06,1.21.1,1.78.07,1,.1,1.33c.34-.12.77-.29,1.29-.52s1-.43,1.61-.63,1.1-.38,1.62-.53a5,5,0,0,1,1.27-.23,16.89,16.89,0,0,1,0,1.78,6.42,6.42,0,0,1-.24,1.66,19.43,19.43,0,0,0-2.67.85c-.94.36-1.83.75-2.67,1.16,0,.33.07.69.1,1.1s.06.82.1,1.24.08.82.14,1.21.12.76.19,1.07l1.39-.52,1.77-.66,1.66-.59,1.09-.35A5.54,5.54,0,0,1,93,141.2C93.09,141.82,93.16,142.43,93.21,143Z"/><path class="cls-4" d="M99.94,140.28c-.28-1.43-.5-2.86-.65-4.27s-.24-2.85-.3-4.29-.09-2.91-.09-4.4,0-3,0-4.56c-.13-.4-.27-.87-.4-1.4a7.59,7.59,0,0,1-.23-1.45,6.56,6.56,0,0,1,1.07-.68c.53-.28,1.12-.57,1.8-.87s1.39-.59,2.15-.88,1.5-.54,2.2-.76a16,16,0,0,1,1.87-.45,2.62,2.62,0,0,1,1.18,0,10.91,10.91,0,0,1,0,1.69,8.35,8.35,0,0,1-.28,1.51,24.82,24.82,0,0,0-2.73.69,17.22,17.22,0,0,0-2.79,1.16,10,10,0,0,0,0,1.07c0,.52,0,1.1,0,1.73s0,1.28,0,1.94,0,1.2.07,1.66c.46-.2,1-.41,1.57-.63s1.14-.44,1.68-.62,1-.32,1.52-.43a2.82,2.82,0,0,1,1.07-.08c0,.54,0,1.13,0,1.76a6.25,6.25,0,0,1-.21,1.62,20.77,20.77,0,0,0-2.75.81c-.89.33-1.8.69-2.75,1.09,0,1,.06,1.77.11,2.39s.11,1.19.19,1.71l.26,1.65q.12.87.27,2.16a4.23,4.23,0,0,1-.94.66,7.41,7.41,0,0,1-1.23.54,2.61,2.61,0,0,1-.91.16A1.29,1.29,0,0,1,99.94,140.28Z"/><path class="cls-4" d="M121.62,133.65c-1.57.52-3.18,1.06-4.83,1.64s-3.26,1.14-4.82,1.69c-.15-.35-.27-.68-.37-1a8.24,8.24,0,0,1-.23-.92c-.05-.32-.11-.66-.15-1s-.08-.8-.1-1.29q-.21-3.48-.27-6.87c0-2.26,0-4.57,0-7-.08-.4-.18-.86-.31-1.39a11,11,0,0,1-.25-1.51,9,9,0,0,1,1.1-.66c.5-.26,1.07-.52,1.7-.79s1.32-.52,2-.79,1.44-.49,2.13-.68,1.33-.35,1.94-.47a7.77,7.77,0,0,1,1.48-.17,6.23,6.23,0,0,1,0,.83c0,.33-.05.66-.08,1a8.39,8.39,0,0,1-.13,1,3.09,3.09,0,0,1-.17.65,24,24,0,0,0-2.83.61,11.11,11.11,0,0,0-2.78,1.16,13,13,0,0,0-.07,1.32c0,.57,0,1.16,0,1.77s0,1.21,0,1.79,0,1,0,1.33c.34-.11.78-.26,1.31-.46s1.07-.39,1.64-.57,1.12-.33,1.65-.45a5,5,0,0,1,1.27-.18,15.63,15.63,0,0,1,0,1.78,6.47,6.47,0,0,1-.31,1.65,19,19,0,0,0-2.71.73c-.95.32-1.86.67-2.71,1,0,.33,0,.7,0,1.11s0,.82,0,1.24,0,.82.09,1.22.09.76.15,1.08l1.4-.46,1.8-.58c.6-.19,1.16-.37,1.69-.52s.89-.26,1.11-.3a5.8,5.8,0,0,1,.37,1.6C121.55,132.43,121.6,133.05,121.62,133.65Z"/><path class="cls-4" d="M127.41,131.68a5.1,5.1,0,0,1-.79.43,10.61,10.61,0,0,1-1,.41c-.36.13-.71.24-1.06.34a5.91,5.91,0,0,1-1,.21q-.16-1.32-.27-3.33t-.15-4.23c0-1.49-.06-3-.07-4.51s0-2.91,0-4.18,0-2.36.09-3.27a11.76,11.76,0,0,1,.18-1.77,5.17,5.17,0,0,1,.71-.36c.28-.12.57-.24.87-.35s.61-.2.91-.28a5.88,5.88,0,0,1,.82-.16q.53,1.38,1.08,2.61c.36.81.74,1.63,1.14,2.45s.83,1.65,1.3,2.51,1,1.79,1.62,2.78c-.06-.69-.1-1.58-.14-2.65s0-2.17,0-3.31,0-2.23.08-3.28.1-1.9.18-2.55a7.54,7.54,0,0,1,1.81-.79c.7-.2,1.32-.36,1.87-.48,0,1.6-.06,3.27-.08,5s0,3.49,0,5.29.07,3.62.15,5.49.19,3.73.36,5.59a7.83,7.83,0,0,1-1.17.62,12,12,0,0,1-1.37.5,13.94,13.94,0,0,1-1.39-1.5,28.83,28.83,0,0,1-1.79-2.4c-.63-.92-1.25-1.92-1.85-3a25.1,25.1,0,0,1-1.56-3.28c0,1.92,0,3.8,0,5.64S127.19,129.65,127.41,131.68Z"/><path class="cls-4" d="M138.29,128.74a49.32,49.32,0,0,1-.22-5c0-1.81,0-3.64.08-5.52s.09-3.71.14-5.53.07-3.52.05-5.1a5.49,5.49,0,0,1,1.37-.69q.78-.28,1.62-.51a3.62,3.62,0,0,1,.69-.13c.23,0,.33.1.32.35-.14,3.46-.26,6.93-.38,10.39s-.11,7,0,10.59a4.1,4.1,0,0,1-.76.39c-.3.13-.63.25-1,.37a9.22,9.22,0,0,1-1,.28A6.07,6.07,0,0,1,138.29,128.74Z"/><path class="cls-4" d="M154.38,124.43a2.62,2.62,0,0,1-.64-.66c-.28-.37-.6-.86-1-1.45s-.74-1.27-1.13-2-.78-1.57-1.15-2.44c-.26.59-.54,1.29-.83,2.09s-.59,1.62-.88,2.44l-.85,2.37c-.28.76-.51,1.39-.71,1.9a8.43,8.43,0,0,1-1.85.29,4.68,4.68,0,0,1-1.51-.14c.15-.62.37-1.37.66-2.26s.62-1.84,1-2.87.77-2.11,1.2-3.24.88-2.26,1.32-3.37c-.39-.77-.77-1.58-1.13-2.42s-.71-1.66-1-2.46-.62-1.56-.89-2.29-.48-1.39-.64-2a6.22,6.22,0,0,1,1.82-1.08,7.12,7.12,0,0,1,2.06-.55c.06.23.17.64.34,1.22s.37,1.21.6,1.89.47,1.37.72,2.06.49,1.28.72,1.76q.83-2.2,1.68-4.35c.57-1.42,1.15-2.77,1.73-4a8.1,8.1,0,0,1,2-.26,5.13,5.13,0,0,1,1.6.21l-.86,2c-.32.71-.66,1.51-1,2.38s-.77,1.86-1.22,2.94-.93,2.3-1.45,3.66c.29.65.6,1.29.91,1.9s.66,1.28,1,2,.79,1.48,1.26,2.33l1.62,2.9a7.06,7.06,0,0,1-1.57.92A11.74,11.74,0,0,1,154.38,124.43Z"/><path class="cls-3" d="M163.88,121.62c0-2.94.08-5.93.31-9s.48-6.12.72-9.25c-.13-.36-.22-.66-.28-.89a7.7,7.7,0,0,1-.19-1,6.06,6.06,0,0,1,1-.6c.43-.22.9-.44,1.41-.65s1-.4,1.53-.58a12,12,0,0,1,1.35-.4,7.59,7.59,0,0,1,3.56-.08,4.18,4.18,0,0,1,2.34,1.6,7.91,7.91,0,0,1,1.25,3.23,22.72,22.72,0,0,1,.25,4.78,19.9,19.9,0,0,1-.62,4.29,14,14,0,0,1-1.6,3.73,10.89,10.89,0,0,1-2.69,2.94,11.4,11.4,0,0,1-3.94,1.85,6.92,6.92,0,0,1-1.22.23,10.54,10.54,0,0,1-1.24.07,9.61,9.61,0,0,1-1.12-.07A2.92,2.92,0,0,1,163.88,121.62Zm3.86-3.72a2.69,2.69,0,0,0,.79-.06,4.22,4.22,0,0,0,2.14-1.17,7.06,7.06,0,0,0,1.4-2.07,11.58,11.58,0,0,0,.8-2.54,15.4,15.4,0,0,0,.28-2.64,21.47,21.47,0,0,0-.11-2.94,6.27,6.27,0,0,0-.66-2.29A2.34,2.34,0,0,0,171,103a3.48,3.48,0,0,0-2.33.4q-.33,3.56-.57,7.21C167.93,113.09,167.82,115.5,167.74,117.9Z"/><path class="cls-3" d="M189.36,116.65c-1.62.36-3.27.73-5,1.14s-3.36.79-5,1.19a9.11,9.11,0,0,1-.27-1,5.87,5.87,0,0,1-.13-1c0-.32-.05-.67-.05-1s0-.81,0-1.3c.1-2.33.24-4.61.44-6.86s.44-4.55.73-6.91c0-.41-.1-.88-.17-1.42a10.21,10.21,0,0,1-.09-1.52,7.62,7.62,0,0,1,1.16-.55c.52-.21,1.11-.41,1.77-.61s1.37-.39,2.12-.57,1.48-.34,2.18-.47,1.37-.21,2-.27a8.26,8.26,0,0,1,1.49,0,7.54,7.54,0,0,1-.1.82c-.06.32-.12.65-.19,1s-.14.64-.22.93a4.76,4.76,0,0,1-.24.63,23.69,23.69,0,0,0-2.88.31,11,11,0,0,0-2.89.88c-.06.3-.13.73-.19,1.3s-.13,1.16-.2,1.77-.11,1.2-.15,1.77-.08,1-.1,1.33c.36-.07.81-.18,1.35-.32s1.11-.28,1.69-.4,1.15-.21,1.68-.28a5.42,5.42,0,0,1,1.29,0,15.79,15.79,0,0,1-.22,1.77,7,7,0,0,1-.47,1.61A20.4,20.4,0,0,0,186,109c-1,.23-1.91.48-2.8.76q0,.51-.06,1.11L183,112.1c0,.41,0,.82,0,1.22s0,.77,0,1.09l1.45-.31,1.84-.4,1.73-.34,1.14-.19a6.54,6.54,0,0,1,.21,1.64C189.42,115.44,189.4,116.05,189.36,116.65Z"/><path class="cls-3" d="M201.46,114.44l-4.1.82c-1.44.27-2.83.56-4.19.85a2.93,2.93,0,0,1-1,.12,1.76,1.76,0,0,1-.65-.27,9.1,9.1,0,0,1-.1-1.6c0-.56,0-1.11.07-1.65.12-1.36.26-2.8.41-4.33s.31-3.07.48-4.61.32-3,.47-4.51.29-2.83.38-4.07c.42-.18.9-.37,1.45-.55a11.14,11.14,0,0,1,1.65-.43,3,3,0,0,1,.71-.06c.22,0,.32.14.31.39-.08,1.22-.2,2.57-.35,4s-.33,3-.51,4.53-.36,3.08-.53,4.59-.3,2.89-.39,4.15c1-.21,2.06-.4,3.1-.59a21.2,21.2,0,0,1,2.78-.32,6.75,6.75,0,0,1,.1.79,7.9,7.9,0,0,1,0,1c0,.34,0,.67-.05,1A4.14,4.14,0,0,1,201.46,114.44Z"/><path class="cls-3" d="M212.26,112.41a5.65,5.65,0,0,1-.8.34,7,7,0,0,1-1,.28,4.57,4.57,0,0,1-1,.12,3.1,3.1,0,0,1-1-.13,13.83,13.83,0,0,1-.07-2c0-.82.1-1.85.23-3.09,0-.19,0-.39.06-.61s.05-.51.09-.87.09-.83.17-1.4.19-1.32.32-2.25.29-2.06.48-3.38.44-2.93.74-4.81c0-.34-.08-.68-.15-1s-.12-.67-.17-1a15.55,15.55,0,0,1,2.49-1.13,15.93,15.93,0,0,1,2.64-.66,10.88,10.88,0,0,1,2.95-.07,5.41,5.41,0,0,1,2.42.88,4.39,4.39,0,0,1,1.52,2,7,7,0,0,1,.31,3.28,10.18,10.18,0,0,1-2.73,6,10.38,10.38,0,0,1-2.52,2,9.24,9.24,0,0,1-2.95,1l-.75.08a4.93,4.93,0,0,1-.76,0c-.07.59-.14,1.13-.21,1.64s-.13,1-.17,1.54-.08,1-.11,1.56S212.25,111.8,212.26,112.41Zm2.09-17.63c-.2,1.32-.36,2.4-.49,3.24s-.24,1.54-.32,2.07-.13,1-.16,1.25-.07.57-.09.82a3,3,0,0,0,1,0,6.83,6.83,0,0,0,1.58-.44,4.78,4.78,0,0,0,1.33-.87,4.46,4.46,0,0,0,1-1.41,6.56,6.56,0,0,0,.49-2.07A2.73,2.73,0,0,0,218,95a2.79,2.79,0,0,0-2.47-.52A5.7,5.7,0,0,0,214.35,94.78Z"/><path class="cls-3" d="M220.77,110.51c.15-.77.41-1.75.75-2.92s.76-2.45,1.23-3.81,1-2.77,1.49-4.22,1-2.82,1.53-4.12,1-2.5,1.4-3.55.79-1.89,1.07-2.5q.76-.23,1.53-.39c.51-.11,1-.2,1.57-.28a7.13,7.13,0,0,1,1-.07,3.34,3.34,0,0,1,1,.16c0,1.29.07,2.78.11,4.45s.11,3.4.22,5.2.25,3.58.44,5.37a39,39,0,0,0,.81,5,8.07,8.07,0,0,1-1.59.64,12.59,12.59,0,0,1-1.83.41,1.63,1.63,0,0,1-.49-.45,2.55,2.55,0,0,1-.32-.77,8.76,8.76,0,0,1-.2-1.23c-.05-.5-.11-1.13-.17-1.87a6.26,6.26,0,0,0-.73.07l-1.26.19-1.41.24-1.22.23a11.08,11.08,0,0,0-.59,1.9c-.18.76-.33,1.55-.47,2.36a2.87,2.87,0,0,1-.61.16l-.9.14a7.76,7.76,0,0,1-1,.09,7.94,7.94,0,0,1-.83,0,.64.64,0,0,1-.39-.16A.43.43,0,0,1,220.77,110.51ZM230,93.21q-.89,2.49-1.68,4.85c-.54,1.56-1,3.07-1.42,4.51.57-.12,1.12-.23,1.65-.31s1.07-.15,1.63-.21c0-.5,0-1.11-.08-1.82S230,98.78,230,98s0-1.6,0-2.42S229.94,94,230,93.21Z"/><path class="cls-3" d="M236.46,109c.07-1.55.25-3.22.51-5s.57-3.6.89-5.44.64-3.66,1-5.46.58-3.47.8-5a5.74,5.74,0,0,1,1.45-.48c.54-.1,1.1-.19,1.68-.26a4.15,4.15,0,0,1,.7,0c.22,0,.31.15.26.4q-1,5.1-1.9,10.22t-1.5,10.48a4.32,4.32,0,0,1-.8.28c-.33.08-.67.15-1,.21a7.67,7.67,0,0,1-1.06.13A6.14,6.14,0,0,1,236.46,109Z"/><path class="cls-3" d="M243.21,106.71a11.86,11.86,0,0,1,.6-2,8.22,8.22,0,0,1,.92-1.75,3.76,3.76,0,0,0,3.84,2.14,4,4,0,0,0,1.77-.6,2,2,0,0,0,.86-1.45,1.56,1.56,0,0,0-.48-1.39,5.05,5.05,0,0,0-1.41-1,15.28,15.28,0,0,0-1.68-.7,4.74,4.74,0,0,1-1.28-.63,4.18,4.18,0,0,1-1.52-1.7,4.58,4.58,0,0,1-.34-2.65,10.2,10.2,0,0,1,.95-3.06,10.58,10.58,0,0,1,1.74-2.57,11.17,11.17,0,0,1,2.4-2,11.39,11.39,0,0,1,2.92-1.27,7.2,7.2,0,0,1,1.53-.24,6.78,6.78,0,0,1,1.58.1,3.47,3.47,0,0,1,1.32.56,1.85,1.85,0,0,1,.74,1.12,5.83,5.83,0,0,1-.29,2.43,10,10,0,0,1-1.08,2.36,1.68,1.68,0,0,1-.68.5,9.49,9.49,0,0,1-1.09.44,10.92,10.92,0,0,1-1.18.32,4.94,4.94,0,0,1-.94.13,6.89,6.89,0,0,0,.67-1.36c.21-.54.39-1,.55-1.47s0-.88-.31-1a1.68,1.68,0,0,0-1.17,0,5.59,5.59,0,0,0-1.37.78,5.68,5.68,0,0,0-1.05,1.09,4.93,4.93,0,0,0-.69,1.24,3.77,3.77,0,0,0-.27,1.29,2.18,2.18,0,0,0,.6,1.65,4.52,4.52,0,0,0,1.7,1.17c.72.27,1.39.55,2,.84a5.57,5.57,0,0,1,1.56,1,3.61,3.61,0,0,1,.91,1.42,4.39,4.39,0,0,1,.13,2,5.66,5.66,0,0,1-.94,2.53,6.27,6.27,0,0,1-1.8,1.72,9.12,9.12,0,0,1-2.32,1,13.86,13.86,0,0,1-2.46.44,7.26,7.26,0,0,1-3.07-.31A4.62,4.62,0,0,1,243.21,106.71Z"/><path class="cls-3" d="M256.37,106.16c.19-.76.5-1.72.9-2.88s.88-2.4,1.43-3.74,1.11-2.71,1.7-4.12,1.18-2.77,1.75-4,1.1-2.43,1.59-3.47.88-1.84,1.2-2.43c.51-.12,1-.23,1.54-.31s1-.15,1.59-.2a7.08,7.08,0,0,1,1,0,2.93,2.93,0,0,1,1,.21q0,1.94-.12,4.44c-.05,1.68-.07,3.41-.06,5.2s.06,3.6.16,5.4a39.5,39.5,0,0,0,.55,5,7.83,7.83,0,0,1-1.62.56,12.76,12.76,0,0,1-1.85.31,1.44,1.44,0,0,1-.47-.48,2.42,2.42,0,0,1-.28-.78,7.5,7.5,0,0,1-.13-1.24c0-.51-.05-1.13-.07-1.87a5.74,5.74,0,0,0-.74,0l-1.26.12-1.43.17-1.23.16a11.94,11.94,0,0,0-.69,1.86c-.22.76-.41,1.54-.58,2.34a2.82,2.82,0,0,1-.63.13c-.28,0-.58.07-.9.09s-.65,0-1,0-.61,0-.84,0a.66.66,0,0,1-.38-.19A.4.4,0,0,1,256.37,106.16Zm10.08-16.79q-1,2.44-1.93,4.76c-.62,1.53-1.17,3-1.65,4.42.58-.09,1.13-.16,1.66-.22s1.08-.09,1.64-.12c0-.5,0-1.11,0-1.82s0-1.46.05-2.24.06-1.6.09-2.42S266.39,90.12,266.45,89.37Z"/><path class="cls-3" d="M276.81,102.62a2,2,0,0,0,1.54-.9,7.94,7.94,0,0,0,1.07-2.12,20.53,20.53,0,0,0,.72-2.68c.19-1,.35-1.79.49-2.53.33-1.72.6-3.41.79-5.09s.44-3.29.75-4.84a5.45,5.45,0,0,1,3.34-.5,1.73,1.73,0,0,1,.86.44,16.26,16.26,0,0,0-.54,2.21c-.17.92-.35,1.94-.54,3s-.4,2.28-.61,3.5-.45,2.41-.71,3.57a32.41,32.41,0,0,1-.89,3.25,12,12,0,0,1-1.17,2.56,6.51,6.51,0,0,1-2.46,2.35,6.89,6.89,0,0,1-3,.87,6.33,6.33,0,0,1-1.81-.17,4.45,4.45,0,0,1-1.34-.58,3.39,3.39,0,0,1-.89-.88,3.25,3.25,0,0,1-.45-1,4.07,4.07,0,0,1,.3-.93c.15-.37.33-.76.53-1.15s.4-.77.61-1.12a7,7,0,0,1,.56-.8,7.49,7.49,0,0,0,1,2.59A2,2,0,0,0,276.81,102.62Z"/><path class="cls-3" d="M295.42,104.27c-1.64.1-3.34.21-5.09.34l-5.09.41c-.05-.38-.09-.73-.11-1s0-.63,0-1,.07-.67.12-1,.13-.79.23-1.28c.46-2.27,1-4.51,1.5-6.7s1.15-4.43,1.81-6.72c0-.4,0-.87.05-1.42a13.81,13.81,0,0,1,.14-1.52,8.49,8.49,0,0,1,1.24-.35c.55-.13,1.17-.24,1.85-.33s1.4-.17,2.18-.24,1.51-.1,2.23-.11,1.38,0,2,0a7,7,0,0,1,1.48.22,6.61,6.61,0,0,1-.24.79c-.1.31-.21.62-.33.94s-.24.61-.37.88a4.45,4.45,0,0,1-.33.59,23.27,23.27,0,0,0-2.9-.14,11.37,11.37,0,0,0-3,.41q-.15.44-.39,1.26L292,90c-.15.59-.29,1.17-.43,1.73l-.3,1.3,1.38-.11c.56-.06,1.14-.1,1.74-.13s1.16,0,1.7,0a5.51,5.51,0,0,1,1.28.16,14.38,14.38,0,0,1-.5,1.71,7,7,0,0,1-.71,1.52,21.93,21.93,0,0,0-2.81,0c-1,.07-2,.17-2.89.32-.06.32-.14.69-.24,1.08l-.27,1.21c-.09.4-.17.81-.24,1.2s-.1.76-.13,1.08L291,101l1.88-.1,1.77-.07c.54,0,.93,0,1.15,0a6.24,6.24,0,0,1-.05,1.65C295.67,103.08,295.56,103.69,295.42,104.27Z"/><path class="cls-3" d="M306.44,103.82a6.33,6.33,0,0,1-.84.22,6.47,6.47,0,0,1-1,.14,5.27,5.27,0,0,1-1,0,3.37,3.37,0,0,1-1-.27,13.61,13.61,0,0,1,.22-2c.13-.81.35-1.82.65-3,0-.18.09-.38.14-.59s.13-.5.21-.85.21-.81.37-1.37.37-1.28.62-2.18.57-2,.95-3.28.84-2.84,1.39-4.66c0-.34,0-.69,0-1s0-.67,0-1a14.17,14.17,0,0,1,2.62-.78,15.69,15.69,0,0,1,2.7-.29,10.25,10.25,0,0,1,2.93.34,5.32,5.32,0,0,1,2.28,1.21,4.31,4.31,0,0,1,1.23,2.19,7,7,0,0,1-.15,3.3,10.08,10.08,0,0,1-3.53,5.57A10.45,10.45,0,0,1,312.41,97a9,9,0,0,1-3.06.6c-.25,0-.5,0-.76,0l-.76-.08c-.15.56-.29,1.1-.43,1.59s-.27,1-.38,1.5-.22,1-.32,1.53S306.51,103.21,306.44,103.82ZM311,86.64c-.38,1.28-.69,2.32-.94,3.14l-.59,2c-.15.51-.27.92-.34,1.21s-.14.56-.2.81a3.28,3.28,0,0,0,.94.13,6.82,6.82,0,0,0,1.63-.23,4.36,4.36,0,0,0,1.43-.67A4.56,4.56,0,0,0,314,91.78a6.71,6.71,0,0,0,.78-2,2.76,2.76,0,0,0-.32-2.47,2.82,2.82,0,0,0-2.37-.86A5.22,5.22,0,0,0,311,86.64Z"/><path class="cls-3" d="M329.4,103.64a3.46,3.46,0,0,1-.94.21,11.12,11.12,0,0,1-1.16.06,9.3,9.3,0,0,1-1.09-.06,1.54,1.54,0,0,1-.68-.19,6.65,6.65,0,0,1,.22-.84,4.79,4.79,0,0,0,.18-.79,5,5,0,0,1-1.75,1.48,5.33,5.33,0,0,1-2.21.66,4.92,4.92,0,0,1-2.14-.31,2.61,2.61,0,0,1-1.22-1,3.49,3.49,0,0,1-.48-1.56,8.24,8.24,0,0,1,.07-1.9,17.09,17.09,0,0,1,.41-2.09c.18-.73.37-1.43.58-2.12.28-1,.61-2.06,1-3.12l1.1-3.15c.36-1,.71-2.06,1-3s.6-1.91.82-2.8l1-.06,1.13,0c.37,0,.72,0,1,0l.79.06c-.39,1.37-.8,2.69-1.25,4s-.89,2.52-1.32,3.76-.84,2.47-1.21,3.71a33.51,33.51,0,0,0-.88,3.78,2.58,2.58,0,0,0,.16,1.8,1.24,1.24,0,0,0,1,.61,2.89,2.89,0,0,0,1.51-.5,6,6,0,0,0,1.6-1.47c.23-.67.49-1.44.78-2.33s.62-1.94,1-3.16.76-2.64,1.19-4.23.88-3.41,1.37-5.49a7.92,7.92,0,0,1,1-.13l1.17-.07a5.06,5.06,0,0,1,1,0l.88.1q-.79,2.89-1.63,5.71l-1.62,5.39q-.76,2.59-1.43,4.92C330,100.94,329.66,102.36,329.4,103.64Z"/><path class="cls-3" d="M336,103.72a5.29,5.29,0,0,1-.88.17,9.13,9.13,0,0,1-1.08.08h-1.12a6.41,6.41,0,0,1-1-.09c.16-.88.41-2,.75-3.26s.73-2.65,1.15-4.08.85-2.86,1.3-4.31.87-2.78,1.27-4,.77-2.24,1.09-3.09a11.19,11.19,0,0,1,.71-1.63c.22-.05.48-.09.79-.13s.61,0,.93-.06a7.53,7.53,0,0,1,1,0,6.09,6.09,0,0,1,.83.1c.06,1,.13,1.92.23,2.81s.21,1.79.35,2.68.28,1.83.47,2.79.42,2,.69,3.15c.16-.68.39-1.54.68-2.57s.63-2.08,1-3.16.72-2.11,1.07-3.1.67-1.78.95-2.38a7.58,7.58,0,0,1,2-.19c.72,0,1.37.06,1.93.11-.52,1.52-1.06,3.09-1.6,4.73s-1.08,3.32-1.6,5-1,3.47-1.54,5.27-.95,3.61-1.36,5.43a6.88,6.88,0,0,1-1.3.24,12.13,12.13,0,0,1-1.45.06,14.44,14.44,0,0,1-.88-1.85c-.33-.83-.65-1.77-1-2.84s-.6-2.2-.85-3.41a25.37,25.37,0,0,1-.48-3.61q-.94,2.73-1.68,5.4T336,103.72Z"/><path class="cls-3" d="M364.12,87.67c-.56,0-1.22-.07-2-.14s-1.46-.09-2.11-.08c-1.06,2.92-2,5.75-2.85,8.51s-1.63,5.56-2.36,8.39a5.1,5.1,0,0,1-1,.22,8.72,8.72,0,0,1-1.14.07,10.55,10.55,0,0,1-1.13-.06,6.67,6.67,0,0,1-1-.19c.36-1.47.79-3,1.27-4.47s1-3,1.48-4.48,1-2.91,1.45-4.29.87-2.66,1.23-3.85c-.64,0-1.25,0-1.82,0s-1.25,0-2,0a4.28,4.28,0,0,1,.21-.76c.1-.31.22-.62.34-1l.39-1,.34-.75c.61,0,1.41,0,2.42,0s2.06,0,3.17.07,2.19.1,3.27.17,2,.17,2.72.27a14.74,14.74,0,0,1-.34,1.6C364.49,86.57,364.31,87.16,364.12,87.67Z"/><path class="cls-3" d="M403.9,87.88a5.2,5.2,0,0,1,2.71,1A4.31,4.31,0,0,1,408.07,91a7.07,7.07,0,0,1,.21,3,15.55,15.55,0,0,1-1,3.73,25.19,25.19,0,0,1-2.15,4.28,17.59,17.59,0,0,1-2.86,3.47,11.28,11.28,0,0,1-3.42,2.22,7.81,7.81,0,0,1-3.86.54,5,5,0,0,1-2.95-1.19,4.69,4.69,0,0,1-1.36-2.45,8.76,8.76,0,0,1,0-3.32,19.33,19.33,0,0,1,1-3.76,21.92,21.92,0,0,1,2.12-4.15A16.76,16.76,0,0,1,396.65,90,11.62,11.62,0,0,1,400,87.86a7.64,7.64,0,0,1,3.72-.58A1.41,1.41,0,0,1,403.9,87.88Zm-1.58,3.56a3.35,3.35,0,0,0-1.88.61,8.46,8.46,0,0,0-1.8,1.62,14.28,14.28,0,0,0-1.57,2.21,18.4,18.4,0,0,0-1.17,2.42,18.71,18.71,0,0,0-.78,2.47,7.12,7.12,0,0,0-.24,2,2.62,2.62,0,0,0,.44,1.44,1.69,1.69,0,0,0,1.23.68,2.63,2.63,0,0,0,1.76-.47,7.48,7.48,0,0,0,1.74-1.59,16.27,16.27,0,0,0,1.6-2.39A25.21,25.21,0,0,0,403,97.56a11.57,11.57,0,0,0,1-4.3A1.73,1.73,0,0,0,402.32,91.44Z"/><polygon class="cls-3" points="223.4 23.21 221.47 23.21 220.64 28.73 222.71 28.09 223.4 23.21"/><path class="cls-4" d="M227.34,19.28a4.54,4.54,0,1,1-8.22-2.9c1.32-1.81,4.31-3.55,5.37-5.52l.55-1,.55,1.36c.76,1.88-.09,3.65,1,5.35A4.49,4.49,0,0,1,227.34,19.28Z"/><polygon class="cls-3" points="294.34 14.4 292.42 14.27 291.2 19.71 293.31 19.22 294.34 14.4"/><path class="cls-4" d="M298.55,10.75a4.54,4.54,0,0,1-9-1.12,4.49,4.49,0,0,1,1-2.34c1.43-1.72,4.54-3.24,5.73-5.14l.62-1,.46,1.4C298,4.5,297,6.21,298,8A4.57,4.57,0,0,1,298.55,10.75Z"/><text class="cls-5" transform="translate(357.96 104.84) rotate(3)"><tspan class="cls-6">A</tspan><tspan x="14.2" y="0">N</tspan></text></g></g></svg>