<svg xmlns="http://www.w3.org/2000/svg" viewBox="0 0 188.83 188.36"><defs><style>.cls-1{fill:#005b8a;stroke:#0b1e2c;stroke-width:11.1px;}.cls-1,.cls-10,.cls-11,.cls-13,.cls-4,.cls-5,.cls-9{stroke-miterlimit:10;}.cls-2{fill:#f07f11;}.cls-3{fill:#d72828;}.cls-10,.cls-13,.cls-4,.cls-5,.cls-9{fill:none;}.cls-11,.cls-13,.cls-4,.cls-5,.cls-9{stroke:#0c3148;}.cls-4{stroke-width:0.77px;}.cls-5{stroke-width:0.41px;}.cls-6{fill:#269037;}.cls-7{fill:#eae2b7;}.cls-8{fill:#0c3148;}.cls-10,.cls-11,.cls-9{stroke-width:2.4px;}.cls-10{stroke:#1d1d1b;}.cls-11{fill:#fcc009;}.cls-12{fill:#f1871c;}.cls-13{stroke-width:1.79px;}</style></defs><title>logo-principal</title><g id="Capa_2" data-name="Capa 2"><g id="Capa_2-2" data-name="Capa 2"><circle class="cls-1" cx="94.65" cy="94.18" r="88.63"/><path class="cls-2" d="M20.09,111.58c2.22,4.92.57,11.34-4,16.5a23.43,23.43,0,0,0,2.68-9.68,23.71,23.71,0,0,0-2.18-11.17A11.48,11.48,0,0,1,20.09,111.58Z"/><path class="cls-3" d="M16.62,107.23A23.71,23.71,0,0,1,18.8,118.4a23.43,23.43,0,0,1-2.68,9.68Z"/><path class="cls-3" d="M16.62,107.23l-.5,20.85a8.65,8.65,0,0,1-2.85-4.47c-.58-2.52.47-4.4,1.61-8.19A51.27,51.27,0,0,0,16.62,107.23Z"/><path class="cls-4" d="M16.12,128.08a8.65,8.65,0,0,1-2.85-4.47c-.58-2.52.47-4.4,1.61-8.19a51.27,51.27,0,0,0,1.74-8.19,11.48,11.48,0,0,1,3.47,4.35C22.31,116.5,20.66,122.92,16.12,128.08Z"/><path class="cls-2" d="M29.38,139.78c-2.22,4.92-.57,11.34,4,16.49a23,23,0,0,1-2.68-9.67,23.58,23.58,0,0,1,2.17-11.17A11.58,11.58,0,0,0,29.38,139.78Z"/><path class="cls-3" d="M32.85,135.43a23.58,23.58,0,0,0-2.17,11.17,23,23,0,0,0,2.68,9.67Z"/><path class="cls-3" d="M32.85,135.43l.51,20.84a8.51,8.51,0,0,0,2.84-4.46c.58-2.52-.47-4.4-1.61-8.19A53.87,53.87,0,0,1,32.85,135.43Z"/><path class="cls-4" d="M33.36,156.27a8.51,8.51,0,0,0,2.84-4.46c.58-2.52-.47-4.4-1.61-8.19a53.87,53.87,0,0,1-1.74-8.19,11.58,11.58,0,0,0-3.47,4.35C27.16,144.7,28.81,151.12,33.36,156.27Z"/><path class="cls-2" d="M165.5,82c-2.21,4.92-.57,11.34,4,16.5A23.36,23.36,0,0,1,169,77.6,11.53,11.53,0,0,0,165.5,82Z"/><path class="cls-3" d="M169,77.6a23.36,23.36,0,0,0,.5,20.85Z"/><path class="cls-3" d="M169,77.6l.5,20.85A8.65,8.65,0,0,0,172.33,94c.58-2.52-.47-4.4-1.62-8.19A52.61,52.61,0,0,1,169,77.6Z"/><path class="cls-4" d="M169.48,98.45A8.65,8.65,0,0,0,172.33,94c.58-2.52-.47-4.4-1.62-8.19A52.61,52.61,0,0,1,169,77.6,11.53,11.53,0,0,0,165.5,82C163.29,86.87,164.93,93.29,169.48,98.45Z"/><path class="cls-2" d="M61.57,14.31c-1.17,2.6-.3,6,2.1,8.71a12.22,12.22,0,0,1-1.41-5.1A12.36,12.36,0,0,1,63.41,12,6,6,0,0,0,61.57,14.31Z"/><path class="cls-3" d="M63.41,12a12.36,12.36,0,0,0-1.15,5.9A12.22,12.22,0,0,0,63.67,23Z"/><path class="cls-3" d="M63.41,12l.26,11a4.53,4.53,0,0,0,1.5-2.35c.31-1.34-.24-2.33-.85-4.33A27.41,27.41,0,0,1,63.41,12Z"/><path class="cls-5" d="M63.67,23a4.53,4.53,0,0,0,1.5-2.35c.31-1.34-.24-2.33-.85-4.33A27.41,27.41,0,0,1,63.41,12a6,6,0,0,0-1.84,2.29C60.4,16.91,61.27,20.3,63.67,23Z"/><path class="cls-3" d="M26.43,44.69c0,1.17-.27,2.8-1,3a27.79,27.79,0,0,1-2.35-5.95,28.07,28.07,0,0,1-.88-9.56c.3,0-.21,2.13,1.06,5.39C24.59,41,26.4,41.87,26.43,44.69Z"/><path class="cls-2" d="M25.44,47.66c-.79.18-1.78-1.45-2.11-2-3.26-5.34-1.71-13.53-1.12-13.52a28.07,28.07,0,0,0,.88,9.56A27.79,27.79,0,0,0,25.44,47.66Z"/><path class="cls-4" d="M22.21,32.15c.3,0-.21,2.13,1.06,5.39,1.32,3.41,3.13,4.33,3.16,7.15,0,1.17-.27,2.8-1,3s-1.78-1.45-2.11-2C20.07,40.33,21.62,32.14,22.21,32.15Z"/><path class="cls-3" d="M172.47,78.56c0,1.18.27,2.8,1,3a27.35,27.35,0,0,0,2.36-6,28.26,28.26,0,0,0,.87-9.56c-.3,0,.22,2.14-1.06,5.4S172.5,75.74,172.47,78.56Z"/><path class="cls-2" d="M173.46,81.53c.79.19,1.79-1.45,2.11-2,3.27-5.34,1.71-13.53,1.12-13.53a28.26,28.26,0,0,1-.87,9.56A27.35,27.35,0,0,1,173.46,81.53Z"/><path class="cls-4" d="M176.69,66c-.3,0,.22,2.14-1.06,5.4s-3.13,4.32-3.16,7.14c0,1.18.27,2.8,1,3s1.79-1.45,2.11-2C178.84,74.21,177.28,66,176.69,66Z"/><path class="cls-3" d="M129.18,6.73c-1.74,1.29-13.83,4.35-13.68,8.51a8.09,8.09,0,0,0,.26,1.71,1.38,1.38,0,0,0,1.61,1,177.42,177.42,0,0,1,24.11-3.24,174.33,174.33,0,0,1,18.58-.23c5.44.22,10.49.67,15.09,1.25a.24.24,0,0,1,0,.48A46.92,46.92,0,0,0,160.75,21a46.38,46.38,0,0,0-11.19,8.17.7.7,0,0,0-.38.84.72.72,0,0,0,.77.52,75.55,75.55,0,0,1,33.24-.86.49.49,0,0,1,.06.94,67.45,67.45,0,0,0-30.75,21,1.09,1.09,0,0,0,.56,1.75,45.91,45.91,0,0,1,18.62,9.94.4.4,0,0,1-.26.71,54.41,54.41,0,0,0-19,3.5,16.67,16.67,0,0,0-10.74,15.37L141.55,90A98.12,98.12,0,0,1,137,115.8a3.67,3.67,0,0,0-2.45-2c-2.85-.4-4.81,4.85-11.31,12.27-5.25,6-7.81,7-9.54,7.29a12.48,12.48,0,0,1-7.18-.91,55.54,55.54,0,0,0,13.19-19.41q1.08-2.68,2.37-5.26a19.74,19.74,0,0,0,1.69-13.68,18.66,18.66,0,0,0-2.28-5.33,10.75,10.75,0,0,0-9.53-5h-.06s3.5-9.69-2.51-23.75a39.91,39.91,0,0,0-9.61-13.59,16.3,16.3,0,0,0-15.49-3.83l-.14,0c-.33.09-.66.2-1,.31a16.56,16.56,0,0,0-9.95,9.68v0a38.74,38.74,0,0,0-2,7l-.14,0a46.24,46.24,0,0,0-3.12-10.57c-.35-.73-3.12-6.27-9.39-7.67a14.17,14.17,0,0,0-14.38,5.75A9.88,9.88,0,0,1,44.73,39a9.1,9.1,0,0,1,8.07-4.54l1.14-.13a10.35,10.35,0,0,1,.57-2.42v-.05C57,25.12,86.88,15.66,86.88,15.66,104.51,10.07,125.68,7,129,6.31A.24.24,0,0,1,129.18,6.73Z"/><path class="cls-6" d="M116.44,143.54c.76.17,1.53.32,2.29.44a77.85,77.85,0,0,0,13.2,1.12c2.33,1.9,12.34,10.37,19.39,17.12a22,22,0,0,1,4.21,5.54,22.48,22.48,0,0,1,2.31,6.56c.35,1.86.55,3.23.67,4.25a5.33,5.33,0,0,1-2.24,5.09l-.48.29a6.39,6.39,0,0,1-5.62,0A23.24,23.24,0,0,1,140,170.24,51.54,51.54,0,0,0,132,157.11a52.08,52.08,0,0,0-15.72-12.56Z"/><path class="cls-7" d="M40,112.39l-4.8-13.08a206.53,206.53,0,0,1,22.43,3.83c7.22,1.66,13.82,3.57,19.74,5.56a36.66,36.66,0,0,0,34.9-12.46,1.43,1.43,0,0,1,1.72,1.34,52.12,52.12,0,0,1-7.28,18.6q-1,1.53-2,2.88h0l-24.48.77-11.12.38c-3.76-.31-7.8-.8-12.08-1.54a137.83,137.83,0,0,1-16.14-3.78Z"/><path class="cls-2" d="M70.92,76.68c1.24.37,2.25.65,3.39.92a34.19,34.19,0,0,1,9,4.84,31.64,31.64,0,0,1,8.82,9.39c-.36.41-.71.82-1.07,1.22a35.8,35.8,0,0,0-2.77,3.19c.93-1.06,1.86-2.13,2.77-3.19a31.46,31.46,0,0,1,12.38-7.73l8.45-1.56h.06a10.75,10.75,0,0,1,9.53,5,18.66,18.66,0,0,1,2.28,5.33A19.74,19.74,0,0,1,122,107.81q-1.29,2.58-2.37,5.26a55.54,55.54,0,0,1-13.19,19.41l-9.82-4.73,0-.07a51.88,51.88,0,0,0,8-8.62q1-1.35,2-2.88a52.12,52.12,0,0,0,7.28-18.6,1.43,1.43,0,0,0-1.72-1.34,36.66,36.66,0,0,1-34.9,12.46c-5.92-2-12.52-3.9-19.74-5.56a206.53,206.53,0,0,0-22.43-3.83A49.6,49.6,0,0,0,4.67,111.19,38,38,0,0,1,1.21,94.33c0-1.2.13-2.36.26-3.47A24.56,24.56,0,0,1,19.82,70L20,70a42.06,42.06,0,0,1,14.57-1c.87.15,1.83.34,2.86.59a44.66,44.66,0,0,1,11,4.2c-.05-.31-.09-.61-.13-.92a2,2,0,0,0,1,1.4,45.18,45.18,0,0,1,6.49,4.52,1.88,1.88,0,0,0,2.25.13A18.17,18.17,0,0,1,62,77a2,2,0,0,0,1.34-1.84v1.45a14.56,14.56,0,0,1,5.91-.27,12.41,12.41,0,0,1,1.62.38Z"/><path class="cls-6" d="M114.23,162.1A78.69,78.69,0,0,0,110,148.32a79.14,79.14,0,0,0-3.92-8.17l0-.05c.77.7,5.42,2.38,10.31,3.44l-.2,1A73.35,73.35,0,0,1,126,161.13c.52,1.25,1,2.46,1.42,3.66a18.44,18.44,0,0,1,.8,9.87.29.29,0,0,1,0,.09,19.49,19.49,0,0,1-3.35,7.57,5.65,5.65,0,0,1-4.7,1.63,5.43,5.43,0,0,1-4.31-3.73A78.62,78.62,0,0,0,114.23,162.1Z"/><path class="cls-6" d="M100.52,138.23,89,132.09,69.08,120.21l11.12-.38,16.45,7.92,9.82,4.73a12.48,12.48,0,0,0,7.18.91c1.73-.34,4.29-1.29,9.54-7.29,6.5-7.42,8.46-12.67,11.31-12.27a3.67,3.67,0,0,1,2.45,2,15.52,15.52,0,0,1,0,4.22c-1.54,10.24-10.29,16-15.48,18.15a.47.47,0,0,0,.16.91c2.36.4,1.87.32,4.54.68a90.33,90.33,0,0,1,10.6,2.1c.26,1.55-.06,1.6.4,2.87a34.34,34.34,0,0,1-5.19.37,77.85,77.85,0,0,1-13.2-1.12c-.76-.12-1.53-.27-2.29-.44-4.89-1.06-9.54-2.74-10.31-3.44l0,.05Z"/><path class="cls-7" d="M104.68,119.06h0a51.88,51.88,0,0,1-8,8.62l0,.07L80.2,119.83Z"/><path class="cls-8" d="M92.09,91.83a31.64,31.64,0,0,0-8.82-9.39,42,42,0,0,1,4.1-24.19,6.75,6.75,0,0,1,4.34-3.54,8.22,8.22,0,0,1,2.3-.26h.07c1.34.36,4.91,1.51,6.54,4.69a11.45,11.45,0,0,1,1,3.36,17.22,17.22,0,0,1-.1,6l-6.9,4.21L102,75a25.67,25.67,0,0,1,1.21,5.11,26.37,26.37,0,0,1,.2,5.18A31.46,31.46,0,0,0,91,93.05C91.38,92.65,91.73,92.24,92.09,91.83Z"/><path class="cls-7" d="M69.08,120.21,89,132.09a33.94,33.94,0,0,1-23.2,3.26,37.66,37.66,0,0,1-6.73-2.1,38.8,38.8,0,0,1-6.69-3.65L44,123.25a.06.06,0,0,0-.07,0l-2.55-7-.52-1.39A137.83,137.83,0,0,0,57,118.67C61.28,119.41,65.32,119.9,69.08,120.21Z"/><path class="cls-2" d="M95.25,170.43a25.24,25.24,0,0,1-6.71-11.93h0a1.08,1.08,0,0,0,.08-.19h0a.19.19,0,0,1,.27,0c10.9,14.85,17.53,11.29,17.53,11.29a27.5,27.5,0,0,0,3.69,7.9A25.42,25.42,0,0,1,95.25,170.43Z"/><path class="cls-7" d="M91.71,54.71a6.75,6.75,0,0,0-4.34,3.54,42,42,0,0,0-4.1,24.19,34.19,34.19,0,0,0-9-4.84c-1.14-.27-2.15-.55-3.39-.92h0a41.71,41.71,0,0,0,.43-15.26q-.12-.91-.27-1.77l.14,0a38.74,38.74,0,0,1,2-7v0a16.56,16.56,0,0,1,9.95-9.68c.31-.11.64-.22,1-.31l.14,0a16.3,16.3,0,0,1,15.49,3.83A39.91,39.91,0,0,1,109.34,60c6,14.06,2.51,23.75,2.51,23.75l-8.45,1.56a26.37,26.37,0,0,0-.2-5.18A25.67,25.67,0,0,0,102,75l-7.41-2.31,6.9-4.21a17.22,17.22,0,0,0,.1-6,11.45,11.45,0,0,0-1-3.36C99,56,95.42,54.81,94.08,54.45H94A8.22,8.22,0,0,0,91.71,54.71Z"/><path class="cls-7" d="M71.32,61.42a41.71,41.71,0,0,1-.43,15.26,12.41,12.41,0,0,0-1.62-.38,14.56,14.56,0,0,0-5.91.27V75.12c0-1.92,0-3.86,0-5.78,0-.34,0-.68,0-1l-.87-.56L62,67.45a1.93,1.93,0,0,1,.23-3.37l.1,0,1-.44c.05-.31.1-.7.14-1.16a14.57,14.57,0,0,0-1.82-8.51l-.25-.42,0,0-.23-.35c-.13-.19-.25-.36-.38-.53l-.26-.33a11.12,11.12,0,0,0-.9-1,4.11,4.11,0,0,0-.29-.3l-.41-.16-.29-.1a8.19,8.19,0,0,0-1.22-.32l-.16,0-.23,0-.33,0-.28,0h-.34a5.46,5.46,0,0,0-1.78.29,5,5,0,0,0-.72.3,5.77,5.77,0,0,0-1,.67,8.5,8.5,0,0,0-2,2.42,14.17,14.17,0,0,0-1.14,2.41l-.19.55a25.49,25.49,0,0,0-1,4.38A38.14,38.14,0,0,0,47.85,68c0,.52,0,1.05.08,1.58,0,.24,0,.48,0,.72.06.84.15,1.71.27,2.6,0,.31.08.61.13.92a44.66,44.66,0,0,0-11-4.2,30.13,30.13,0,0,1,6.73-22.45,14.17,14.17,0,0,1,14.38-5.75c6.27,1.4,9,6.94,9.39,7.67a46.24,46.24,0,0,1,3.12,10.57Q71.2,60.51,71.32,61.42Z"/><path class="cls-2" d="M63.64,167.64a42.29,42.29,0,0,0,1.7,7.68c-1.45-.63-13.78-6.32-17-20a27.9,27.9,0,0,1-.33-10.95.12.12,0,0,1,.12-.1.11.11,0,0,1,.11.08C49.33,147.44,55.73,165.6,63.64,167.64Z"/><path class="cls-2" d="M63.86,156.56a29.38,29.38,0,0,0,12.89,15.28A27.25,27.25,0,0,0,86.39,175a35.57,35.57,0,0,0,1.38,6,27,27,0,0,1-14.28-5.85c-8-6.55-9.44-15.72-9.73-18.49a.28.28,0,0,0,0-.09h0A.06.06,0,0,1,63.86,156.56Z"/><path class="cls-8" d="M61.65,53.92a14.57,14.57,0,0,1,1.82,8.51A1.94,1.94,0,0,1,62.33,64l-.1,0L59,65.5l3,2,.46.31a2,2,0,0,1,.88,1.58c0,1.92,0,3.86,0,5.78A2,2,0,0,1,62,77a18.17,18.17,0,0,0-4.05,2,1.88,1.88,0,0,1-2.25-.13,45.18,45.18,0,0,0-6.49-4.52,2,2,0,0,1-1-1.4c-.12-.89-.21-1.76-.27-2.6,0-.25,0-.48,0-.72,0-.53-.06-1.06-.08-1.58a38.14,38.14,0,0,1,.32-6.74,25.49,25.49,0,0,1,1-4.38l.19-.55a15,15,0,0,1,1.14-2.41,8.5,8.5,0,0,1,2-2.42,5.77,5.77,0,0,1,1-.67,5,5,0,0,1,.72-.3,5.46,5.46,0,0,1,1.78-.29h.34l.28,0,.33,0,.23,0,.16,0a8.19,8.19,0,0,1,1.22.32l.29.1a1.82,1.82,0,0,1,.7.46,11.12,11.12,0,0,1,.9,1l.26.33c.13.17.25.34.38.53l.23.35,0,0Z"/><path class="cls-8" d="M59,65.5l3.25-1.42A1.93,1.93,0,0,0,62,67.45Z"/><path class="cls-8" d="M61.65,53.92l-.25-.42Z"/><path class="cls-8" d="M61.37,53.46l-.23-.35Z"/><path class="cls-8" d="M60.76,52.58l-.26-.33Z"/><path class="cls-8" d="M57.39,50.37l-.16,0Z"/><path class="cls-8" d="M56.39,50.24h0Z"/><path class="cls-3" d="M63.77,156.54h0s0,0,0,0v0a39.44,39.44,0,0,0-.33,9c0,.68.12,1.35.21,2-7.91-2-14.31-20.2-15.36-23.32a.11.11,0,0,0-.11-.08l.14-.13a29.65,29.65,0,0,1,2.34-8l.05,0q.51.54,1.08,1.08a27.78,27.78,0,0,0,7.14,4.94,50.68,50.68,0,0,0,10,3,51.79,51.79,0,0,0,15.53.58,24.77,24.77,0,0,0,16.1-7.38l5.56,1.92a79.14,79.14,0,0,1,3.92,8.17l-.34.13c-1.12,2.21-4.48,8.46-4.25,14.8a26.73,26.73,0,0,0,1,6.38s-6.63,3.56-17.53-11.29a.19.19,0,0,0-.27,0h0a.18.18,0,0,0-.08.19h0a29.47,29.47,0,0,0-2.49,11.17,35.08,35.08,0,0,0,.34,5.32,27.25,27.25,0,0,1-9.64-3.15,29.38,29.38,0,0,1-12.89-15.28A.06.06,0,0,0,63.77,156.54Z"/><path class="cls-2" d="M44,123.25l8.4,6.35a38.8,38.8,0,0,0,6.69,3.65,37.66,37.66,0,0,0,6.73,2.1A33.94,33.94,0,0,0,89,132.09l11.5,6.14a24.77,24.77,0,0,1-16.1,7.38A51.79,51.79,0,0,1,68.89,145a50.68,50.68,0,0,1-10-3,27.78,27.78,0,0,1-7.14-4.94q-.57-.54-1.08-1.08a28.6,28.6,0,0,1-3.47-4.52c-1.12-2.73-2.23-5.46-3.35-8.18a.07.07,0,0,1,0-.1A.06.06,0,0,1,44,123.25Z"/><path class="cls-6" d="M40.86,114.89l.52,1.39-.06,0a48.54,48.54,0,0,1-7.58-3.52c-.9-.52-1.74-1.05-2.51-1.58a1.55,1.55,0,0,1-.7-1,1.41,1.41,0,0,1,0-.21v0a.93.93,0,0,1,1.16-.86c.55.13,1.13.28,1.71.47A31.37,31.37,0,0,1,40,112.39Z"/><path class="cls-9" d="M35.15,99.31A49.6,49.6,0,0,0,4.67,111.19,38,38,0,0,1,1.21,94.33c0-1.2.13-2.36.26-3.47A24.56,24.56,0,0,1,19.82,70L20,70a42.06,42.06,0,0,1,14.57-1c.87.15,1.83.34,2.86.59"/><path class="cls-9" d="M88.25,96.24A35.8,35.8,0,0,1,91,93.05C90.11,94.11,89.18,95.18,88.25,96.24Z"/><path class="cls-9" d="M62.46,67.76a2,2,0,0,1,.88,1.58"/><path class="cls-9" d="M62.23,64.08A1.93,1.93,0,0,0,62,67.45"/><path class="cls-9" d="M63.47,62.43A1.94,1.94,0,0,1,62.33,64"/><path class="cls-9" d="M61.4,53.5l.25.42"/><path class="cls-9" d="M61.14,53.11l.23.35"/><path class="cls-9" d="M60.5,52.25l.26.33"/><path class="cls-9" d="M58.61,50.69l.29.1a1.82,1.82,0,0,1,.7.46"/><path class="cls-9" d="M57.23,50.34l.16,0"/><path class="cls-9" d="M56.67,50.26l.33,0"/><path class="cls-9" d="M56.05,50.23h.34"/><path class="cls-9" d="M52.53,51.49a5.77,5.77,0,0,1,1-.67"/><path class="cls-9" d="M49.36,56.32a15,15,0,0,1,1.14-2.41"/><path class="cls-9" d="M48,70.29c0-.25,0-.48,0-.72,0-.53-.06-1.06-.08-1.58a38.14,38.14,0,0,1,.32-6.74,25.49,25.49,0,0,1,1-4.38"/><path class="cls-9" d="M63.36,75.12A2,2,0,0,1,62,77a18.17,18.17,0,0,0-4.05,2,1.88,1.88,0,0,1-2.25-.13,45.18,45.18,0,0,0-6.49-4.52,2,2,0,0,1-1-1.4"/><path class="cls-9" d="M43.93,123.24a.06.06,0,0,1,.07,0l8.4,6.35a38.8,38.8,0,0,0,6.69,3.65,37.66,37.66,0,0,0,6.73,2.1A33.94,33.94,0,0,0,89,132.09l11.5,6.14a24.77,24.77,0,0,1-16.1,7.38A51.79,51.79,0,0,1,68.89,145a50.68,50.68,0,0,1-10-3,27.78,27.78,0,0,1-7.14-4.94q-.57-.54-1.08-1.08a28.6,28.6,0,0,1-3.47-4.52c-1.12-2.73-2.23-5.46-3.35-8.18a.07.07,0,0,1,0-.1"/><path class="cls-9" d="M43.94,123.26v0l-2.55-7-.52-1.39-.91-2.5-4.8-13.08a206.53,206.53,0,0,1,22.43,3.83c7.22,1.66,13.82,3.57,19.74,5.56a36.66,36.66,0,0,0,34.9-12.46,1.43,1.43,0,0,1,1.72,1.34,52.12,52.12,0,0,1-7.28,18.6q-1,1.53-2,2.88a51.88,51.88,0,0,1-8,8.62"/><line class="cls-9" x1="80.2" y1="119.83" x2="104.68" y2="119.06"/><path class="cls-9" d="M40.71,114.84l.15,0A137.83,137.83,0,0,0,57,118.67c4.28.74,8.32,1.23,12.08,1.54"/><path class="cls-9" d="M40,112.44l-.08,0a31.37,31.37,0,0,0-6.56-2.85c-.58-.19-1.16-.34-1.71-.47a.93.93,0,0,0-1.16.86v0a1.41,1.41,0,0,0,0,.21,1.55,1.55,0,0,0,.7,1c.77.53,1.61,1.06,2.51,1.58a48.54,48.54,0,0,0,7.58,3.52"/><path class="cls-9" d="M106,139.91c0,.05,0,.11.12.19.77.7,5.42,2.38,10.31,3.44.76.17,1.53.32,2.29.44a77.85,77.85,0,0,0,13.2,1.12,34.34,34.34,0,0,0,5.19-.37c-.46-1.27-.14-1.32-.4-2.87a90.33,90.33,0,0,0-10.6-2.1c-2.67-.36-2.18-.28-4.54-.68a.47.47,0,0,1-.16-.91c5.19-2.11,13.94-7.91,15.48-18.15a15.52,15.52,0,0,0,0-4.22,3.67,3.67,0,0,0-2.45-2c-2.85-.4-4.81,4.85-11.31,12.27-5.25,6-7.81,7-9.54,7.29a12.48,12.48,0,0,1-7.18-.91"/><path class="cls-9" d="M100.52,138.23l5.56,1.92a79.14,79.14,0,0,1,3.92,8.17,78.49,78.49,0,0,1,5.86,31.9,5.43,5.43,0,0,0,4.31,3.73,5.65,5.65,0,0,0,4.7-1.63,19.49,19.49,0,0,0,3.35-7.57.29.29,0,0,0,0-.09,18.44,18.44,0,0,0-.8-9.87c-.42-1.2-.9-2.41-1.42-3.66a73.35,73.35,0,0,0-9.78-16.58A52.08,52.08,0,0,1,132,157.11,51.54,51.54,0,0,1,140,170.24a23.24,23.24,0,0,0,10.15,13.66,6.39,6.39,0,0,0,5.62,0l.48-.29a5.33,5.33,0,0,0,2.24-5.09c-.12-1-.32-2.39-.67-4.25a22.48,22.48,0,0,0-2.31-6.56,22,22,0,0,0-4.21-5.54c-7-6.75-17.06-15.22-19.39-17.12l-.45-.36"/><path class="cls-9" d="M137,115.8A98.12,98.12,0,0,0,141.55,90l.08-7.15a16.67,16.67,0,0,1,10.74-15.37,54.41,54.41,0,0,1,19-3.5.4.4,0,0,0,.26-.71,45.91,45.91,0,0,0-18.62-9.94,1.09,1.09,0,0,1-.56-1.75,67.45,67.45,0,0,1,30.75-21,.49.49,0,0,0-.06-.94A75.55,75.55,0,0,0,150,30.5a.72.72,0,0,1-.77-.52.7.7,0,0,1,.38-.84A46.38,46.38,0,0,1,160.75,21a46.92,46.92,0,0,1,14.41-4.79.24.24,0,0,0,0-.48c-4.6-.58-9.65-1-15.09-1.25a174.33,174.33,0,0,0-18.58.23,177.42,177.42,0,0,0-24.11,3.24,1.38,1.38,0,0,1-1.61-1,8.09,8.09,0,0,1-.26-1.71c-.15-4.16,11.94-7.22,13.68-8.51a.24.24,0,0,0-.19-.42c-3.31.7-24.48,3.76-42.11,9.35,0,0-29.9,9.46-32.36,16.21v.05a10.35,10.35,0,0,0-.57,2.42c.75-.11,6-1.4,10.54,2a12.37,12.37,0,0,1,4.41,6.42"/><path class="cls-9" d="M77.51,37.58a20.1,20.1,0,0,1,21.1-7.67c9.72,2.61,13.14,12,13.41,12.84"/><path class="cls-9" d="M44.16,47.16A9.88,9.88,0,0,1,44.73,39a9.1,9.1,0,0,1,8.07-4.54l.77,0"/><path class="cls-10" d="M37.45,69.78a.88.88,0,0,1,0-.17"/><path class="cls-9" d="M56.05,50.23a5.46,5.46,0,0,0-1.78.29,5,5,0,0,0-.72.3,5.77,5.77,0,0,0-1,.67,8.5,8.5,0,0,0-2,2.42,14.17,14.17,0,0,0-1.14,2.41l-.19.55a25.49,25.49,0,0,0-1,4.38A38.14,38.14,0,0,0,47.85,68c0,.52,0,1.05.08,1.58,0,.24,0,.48,0,.72.06.84.15,1.71.27,2.6,0,.31.08.61.13.92a44.66,44.66,0,0,0-11-4.2,30.13,30.13,0,0,1,6.73-22.45,14.17,14.17,0,0,1,14.38-5.75c6.27,1.4,9,6.94,9.39,7.67a46.24,46.24,0,0,1,3.12,10.57q.15.85.27,1.77a41.71,41.71,0,0,1-.43,15.26,12.41,12.41,0,0,0-1.62-.38,14.56,14.56,0,0,0-5.91.27V75.12c0-1.92,0-3.86,0-5.78,0-.34,0-.68,0-1l-.87-.56L62,67.45"/><path class="cls-9" d="M57.23,50.34l-.23,0-.33,0-.28,0"/><path class="cls-9" d="M60.5,52.25a11.12,11.12,0,0,0-.9-1,4.11,4.11,0,0,0-.29-.3l-.41-.16-.29-.1a8.19,8.19,0,0,0-1.22-.32"/><path class="cls-9" d="M61.14,53.11c-.13-.19-.25-.36-.38-.53"/><path class="cls-9" d="M61.4,53.5l0,0"/><path class="cls-9" d="M62.23,64.08l.1,0,1-.44c.05-.31.1-.7.14-1.16a14.57,14.57,0,0,0-1.82-8.51"/><path class="cls-9" d="M70.89,76.68h0c1.24.37,2.25.65,3.39.92a34.19,34.19,0,0,1,9,4.84"/><path class="cls-9" d="M71.19,59.63a38.74,38.74,0,0,1,2-7v0a16.56,16.56,0,0,1,9.95-9.68c.31-.11.64-.22,1-.31l.14,0a16.3,16.3,0,0,1,15.49,3.83A39.91,39.91,0,0,1,109.34,60c6,14.06,2.51,23.75,2.51,23.75h.06a10.75,10.75,0,0,1,9.53,5,18.66,18.66,0,0,1,2.28,5.33A19.74,19.74,0,0,1,122,107.81q-1.29,2.58-2.37,5.26a55.54,55.54,0,0,1-13.19,19.41l-9.82-4.73L80.2,119.83l-11.12.38L89,132.09"/><path class="cls-9" d="M88.62,158.3a.19.19,0,0,1,.27,0c10.9,14.85,17.53,11.29,17.53,11.29a27.5,27.5,0,0,0,3.69,7.9,25,25,0,0,1-21.57-19"/><path class="cls-9" d="M88.54,158.49a.18.18,0,0,1,.08-.19"/><path class="cls-9" d="M109.66,148.45c-1.12,2.21-4.48,8.46-4.25,14.8a26.73,26.73,0,0,0,1,6.38"/><path class="cls-9" d="M63.77,156.55a.28.28,0,0,1,0,.09,39.44,39.44,0,0,0-.33,9c0,.68.12,1.35.21,2"/><path class="cls-9" d="M63.79,156.42s0,.08,0,.12"/><path class="cls-9" d="M48.31,144.11a29.65,29.65,0,0,1,2.34-8"/><path class="cls-9" d="M86.39,175a35.08,35.08,0,0,1-.34-5.32,29.47,29.47,0,0,1,2.49-11.17h0a1.08,1.08,0,0,0,.08-.19h0"/><path class="cls-9" d="M63.64,167.64a42.29,42.29,0,0,0,1.7,7.68c-1.45-.63-13.78-6.32-17-20a27.9,27.9,0,0,1-.33-10.95.12.12,0,0,1,.12-.1.11.11,0,0,1,.11.08C49.33,147.44,55.73,165.6,63.64,167.64Z"/><path class="cls-9" d="M86.39,175a35.57,35.57,0,0,0,1.38,6,27,27,0,0,1-14.28-5.85c-8-6.55-9.44-15.72-9.73-18.49v0s0,0,0,0h0a.06.06,0,0,1,.09,0,29.38,29.38,0,0,0,12.89,15.28A27.25,27.25,0,0,0,86.39,175Z"/><path class="cls-9" d="M91,93.05c.36-.4.71-.81,1.07-1.22a31.64,31.64,0,0,0-8.82-9.39,42,42,0,0,1,4.1-24.19,6.75,6.75,0,0,1,4.34-3.54,8.22,8.22,0,0,1,2.3-.26h.07c1.34.36,4.91,1.51,6.54,4.69a11.45,11.45,0,0,1,1,3.36,17.22,17.22,0,0,1-.1,6l-6.9,4.21L102,75a25.67,25.67,0,0,1,1.21,5.11,26.37,26.37,0,0,1,.2,5.18A31.46,31.46,0,0,0,91,93.05Z"/><line class="cls-9" x1="103.4" y1="85.32" x2="111.85" y2="83.76"/><path class="cls-11" d="M173.22,145.32h0a2.41,2.41,0,0,0-2.41,3.64h0a2.41,2.41,0,0,1-3.41,3.24h0a2.41,2.41,0,0,0-3.75,2.23h0a2.41,2.41,0,0,1-4.48,1.45h0a2.4,2.4,0,0,0-4.34.38h0a2.41,2.41,0,0,1-4.66-.64h0a2.41,2.41,0,0,0-4.08-1.54h0a2.41,2.41,0,0,1-3.92-2.6h0a2.41,2.41,0,0,0-3-3.16h0a2.4,2.4,0,0,1-2.4-4h0a2.41,2.41,0,0,0-1.34-4.15h0a2.41,2.41,0,0,1-.42-4.69h0a2.41,2.41,0,0,0,.6-4.32h0a2.41,2.41,0,0,1,1.66-4.4h0a2.41,2.41,0,0,0,2.41-3.64h0a2.4,2.4,0,0,1,3.4-3.24h0a2.41,2.41,0,0,0,3.75-2.23h0a2.41,2.41,0,0,1,4.48-1.45h0a2.4,2.4,0,0,0,4.34-.38h0a2.41,2.41,0,0,1,4.66.64h0a2.41,2.41,0,0,0,4.08,1.54h0a2.41,2.41,0,0,1,3.93,2.6h0a2.4,2.4,0,0,0,3,3.16h0a2.41,2.41,0,0,1,2.41,4h0a2.41,2.41,0,0,0,1.34,4.15h0a2.41,2.41,0,0,1,.41,4.69h0a2.41,2.41,0,0,0-.59,4.32h0A2.41,2.41,0,0,1,173.22,145.32Z"/><circle class="cls-12" cx="159.38" cy="124.3" r="1.92"/><circle class="cls-12" cx="164.17" cy="132.16" r="1.6"/><circle class="cls-12" cx="163.47" cy="140.91" r="1.15"/><path class="cls-13" d="M4.67,111.19c-2.5-12,1.38-24.38,10.26-31.85,11.3-9.51,29-9.67,41.88.42"/><path class="cls-2" d="M169.13,16.87a30.14,30.14,0,0,0-10.46,3.87c-1.91,1.15-3.34,2.19-5.45,3.7-1.91,1.37-3.31,3.24-5.12,4.5-.46-.86.53-2.83,1-3.57,2.22-3.64,4.47-7.24,8-9.63a2.68,2.68,0,0,1,1.26-.29,14.27,14.27,0,0,1,1.46-.07c4,0,8.08.12,12.11.4l-1.37.63Z"/><path class="cls-2" d="M165.84,29.46c1.81,0,6.93-.25,11.24,0a6.26,6.26,0,0,1,2.86,1,49,49,0,0,0-6.62,3,78.44,78.44,0,0,0-12,7.69,40.6,40.6,0,0,0-3.33,3c-.9.88-1.53,2-2.42,2.86s-2.47,2.29-2.67,2.18"/><path class="cls-2" d="M164.44,59.67c1.7.29,3.3,2.5,4.91,3.09a53.92,53.92,0,0,0-8.58,1.05,47,47,0,0,0-7.5,2.29c-1.81.71-3.7,1.56-5.45,2.43,1-2,4.53-3.8,6.45-4.76,1.27-.62,2.56-1.18,3.86-1.71"/></g></g></svg>